<?xml version="1.0" encoding="utf-8"?>
<!-- Generator: Adobe Illustrator 27.5.0, SVG Export Plug-In . SVG Version: 6.00 Build 0)  -->
<svg version="1.1" id="Capa_1" xmlns="http://www.w3.org/2000/svg" xmlns:xlink="http://www.w3.org/1999/xlink" x="0px" y="0px"
	 viewBox="0 0 425.197 425.198" style="enable-background:new 0 0 425.197 425.198;" xml:space="preserve">
<g>
	<rect x="-0.001" y="-0.001" style="fill:#87D3E2;" width="425.199" height="425.199"/>
	<polygon style="opacity:0.1;fill:#FFFFFF;" points="272.187,226.261 413.587,212.536 270.944,198.689 360.929,150.061 
		264.396,180.124 354.675,70.433 244.02,161.503 273.265,63.493 226.261,153.013 212.534,11.61 198.689,154.253 150.064,64.272 
		180.124,160.804 70.433,70.522 161.503,181.177 63.495,151.935 153.011,198.936 11.61,212.663 154.253,226.509 64.272,275.136 
		160.802,245.075 70.522,354.765 181.175,263.694 151.935,361.702 198.937,272.186 212.661,413.587 226.511,270.948 
		275.136,360.929 245.073,264.396 354.765,354.675 263.694,244.02 361.704,273.265 	"/>
	<g>
		<g>
			<path style="fill:#FFFFFF;" d="M266.772,89.796c0,29.92-24.254,54.174-54.172,54.174c-29.922,0-54.176-24.254-54.176-54.174
				s24.254-54.176,54.176-54.176C242.519,35.62,266.772,59.876,266.772,89.796z"/>
			
				<path style="fill:none;stroke:#FFFFFF;stroke-width:3.1235;stroke-linecap:round;stroke-miterlimit:10;stroke-dasharray:18.745,4.6863,31.2416;" d="
				M261.923,53.116c7.625,10.238,12.137,22.932,12.137,36.68c0,33.943-27.518,61.463-61.459,61.463
				c-33.945,0-61.465-27.52-61.465-61.463c0-33.945,27.52-61.465,61.465-61.465c9.92,0,19.301,2.355,27.602,6.531"/>
		</g>
		<g>
			<g>
				<path style="fill:#FFFFFF;" d="M143.358,172.11c0,29.92-24.252,54.174-54.172,54.174c-29.92,0-54.176-24.254-54.176-54.174
					c0-29.92,24.256-54.176,54.176-54.176C119.106,117.935,143.358,142.19,143.358,172.11z"/>
				
					<path style="fill:none;stroke:#FFFFFF;stroke-width:3.1235;stroke-linecap:round;stroke-miterlimit:10;stroke-dasharray:18.745,4.6863,31.2416;" d="
					M138.511,135.431c7.625,10.238,12.137,22.932,12.137,36.68c0,33.943-27.518,61.463-61.461,61.463
					c-33.943,0-61.463-27.52-61.463-61.463c0-33.945,27.519-61.465,61.463-61.465c9.922,0,19.301,2.355,27.602,6.531"/>
			</g>
			<g>
				<path style="fill:#FFFFFF;" d="M390.187,172.11c0,29.92-24.254,54.174-54.174,54.174c-29.92,0-54.176-24.254-54.176-54.174
					c0-29.92,24.256-54.176,54.176-54.176C365.933,117.935,390.187,142.19,390.187,172.11z"/>
				
					<path style="fill:none;stroke:#FFFFFF;stroke-width:3.1235;stroke-linecap:round;stroke-miterlimit:10;stroke-dasharray:18.745,4.6863,31.2416;" d="
					M385.337,135.431c7.625,10.238,12.137,22.932,12.137,36.68c0,33.943-27.518,61.463-61.461,61.463
					c-33.943,0-61.463-27.52-61.463-61.463c0-33.945,27.52-61.465,61.463-61.465c9.922,0,19.301,2.355,27.604,6.531"/>
			</g>
		</g>
	</g>
	<g>
		<g>
			<g>
				<g>
					<path style="fill:#A7C3D2;" d="M62.647,208.924c-0.267,0-0.533-0.102-0.737-0.305l-9.236-9.236
						c-0.195-0.196-0.305-0.461-0.305-0.737c0-0.276,0.109-0.541,0.305-0.737l53.674-53.674c0.195-0.195,0.461-0.305,0.737-0.305
						s0.542,0.11,0.737,0.305l9.236,9.236c0.407,0.407,0.407,1.067,0,1.475l-53.674,53.674
						C63.181,208.823,62.914,208.924,62.647,208.924z"/>
					<path style="fill:#414042;" d="M107.085,144.972l9.236,9.236l-53.674,53.674l-9.236-9.236L107.085,144.972 M107.085,142.887
						c-0.534,0-1.067,0.204-1.474,0.611l-53.674,53.674c-0.814,0.814-0.814,2.134,0,2.948l9.236,9.236
						c0.406,0.407,0.939,0.611,1.474,0.611c0.534,0,1.067-0.204,1.474-0.611l53.674-53.674c0.814-0.814,0.814-2.134,0-2.948
						l-9.236-9.236C108.152,143.09,107.619,142.887,107.085,142.887L107.085,142.887z"/>
				</g>
			</g>
			
				<rect x="46.914" y="172.246" transform="matrix(0.707 -0.7072 0.7072 0.707 -99.9061 111.7137)" style="fill:#597583;" width="75.906" height="8.362"/>
			
				<rect x="42.231" y="171.806" transform="matrix(0.7071 -0.7072 0.7072 0.7071 -97.7367 108.7034)" style="opacity:0.5;fill:#C9EBFC;" width="80.208" height="1.026"/>
			<g>
				<g>
					<path style="fill:#A7C3D2;" d="M121.795,159.52c-5.349,0-10.376-2.082-14.158-5.864c-7.806-7.806-7.806-20.508,0-28.314
						c3.782-3.782,8.812-5.865,14.16-5.865c5.348,0,10.374,2.082,14.154,5.864c0.979,0.977,1.862,2.064,2.622,3.23
						c0.226,0.345,0.226,0.79,0.002,1.136c-0.194,0.299-0.525,0.475-0.875,0.475c-0.054,0-0.108-0.004-0.163-0.013l-10.469-1.657
						l-5.934,11.643l9.239,9.24l8.849-4.508c0.15-0.077,0.313-0.114,0.474-0.114c0.247,0,0.492,0.088,0.687,0.258
						c0.321,0.281,0.438,0.729,0.297,1.131c-1.001,2.837-2.591,5.358-4.727,7.494C132.171,157.438,127.144,159.52,121.795,159.52z"
						/>
					<path style="fill:#414042;" d="M121.797,120.519c4.855,0,9.713,1.853,13.417,5.558c0.953,0.951,1.779,1.978,2.486,3.062
						l-11.217-1.775l-6.621,12.992l10.311,10.311l9.523-4.852c-0.914,2.592-2.406,5.029-4.48,7.104
						c-3.706,3.706-8.563,5.559-13.421,5.559c-4.857,0-9.715-1.853-13.421-5.559c-7.412-7.412-7.412-19.428,0-26.84
						C112.081,122.372,116.938,120.519,121.797,120.519 M139.696,145.815h0.005 M121.797,118.434h-0.002
						c-5.626,0-10.916,2.191-14.895,6.171c-8.213,8.212-8.213,21.576,0,29.788c3.979,3.979,9.268,6.17,14.895,6.17
						c5.627,0,10.916-2.191,14.895-6.17c2.222-2.221,3.883-4.839,4.938-7.783c0.101-0.245,0.156-0.514,0.156-0.795
						c0-1.149-0.927-2.081-2.074-2.085c-0.005,0-0.009,0-0.014,0c-0.036,0-0.072,0.001-0.109,0.003
						c-0.314,0.016-0.61,0.103-0.873,0.243l-8.137,4.145l-8.168-8.169l5.245-10.293l9.721,1.539
						c0.109,0.017,0.218,0.025,0.327,0.025c0.699,0,1.361-0.352,1.749-0.951c0.448-0.692,0.446-1.583-0.004-2.273
						c-0.8-1.226-1.728-2.37-2.76-3.399C132.712,120.626,127.424,118.435,121.797,118.434L121.797,118.434z"/>
				</g>
			</g>
			<g>
				<g>
					<path style="fill:#A7C3D2;" d="M121.795,159.52c-5.349,0-10.376-2.082-14.158-5.864c-7.806-7.806-7.806-20.508,0-28.314
						c3.782-3.782,8.812-5.865,14.16-5.865c5.348,0,10.374,2.082,14.154,5.864c0.979,0.977,1.862,2.064,2.622,3.23
						c0.226,0.345,0.226,0.79,0.002,1.136c-0.194,0.299-0.525,0.475-0.875,0.475c-0.054,0-0.108-0.004-0.163-0.013l-10.469-1.657
						l-5.934,11.643l9.239,9.24l8.849-4.508c0.15-0.077,0.313-0.114,0.474-0.114c0.247,0,0.492,0.088,0.687,0.258
						c0.321,0.281,0.438,0.729,0.297,1.131c-1.001,2.837-2.591,5.358-4.727,7.494C132.171,157.438,127.144,159.52,121.795,159.52z"
						/>
					<path style="fill:#414042;" d="M121.797,120.519c4.855,0,9.713,1.853,13.417,5.558c0.953,0.951,1.779,1.978,2.486,3.062
						l-11.217-1.775l-6.621,12.992l10.311,10.311l9.523-4.852c-0.914,2.592-2.406,5.029-4.48,7.104
						c-3.706,3.706-8.563,5.559-13.421,5.559c-4.857,0-9.715-1.853-13.421-5.559c-7.412-7.412-7.412-19.428,0-26.84
						C112.081,122.372,116.938,120.519,121.797,120.519 M139.696,145.815h0.005 M121.797,118.434h-0.002
						c-5.626,0-10.916,2.191-14.895,6.171c-8.213,8.212-8.213,21.576,0,29.788c3.979,3.979,9.268,6.17,14.895,6.17
						c5.627,0,10.916-2.191,14.895-6.17c2.222-2.221,3.883-4.839,4.938-7.783c0.101-0.245,0.156-0.514,0.156-0.795
						c0-1.149-0.927-2.081-2.074-2.085c-0.005,0-0.009,0-0.014,0c-0.036,0-0.072,0.001-0.109,0.003
						c-0.314,0.016-0.61,0.103-0.873,0.243l-8.137,4.145l-8.168-8.169l5.245-10.293l9.721,1.539
						c0.109,0.017,0.218,0.025,0.327,0.025c0.699,0,1.361-0.352,1.749-0.951c0.448-0.692,0.446-1.583-0.004-2.273
						c-0.8-1.226-1.728-2.37-2.76-3.399C132.712,120.626,127.424,118.435,121.797,118.434L121.797,118.434z"/>
				</g>
			</g>
			<g>
				<g>
					<g>
						<path style="fill:#A7C3D2;" d="M139.696,145.815l-1.4,0.713c-0.717,1.109-1.557,2.162-2.527,3.135
							c-7.412,7.412-19.43,7.412-26.842,0c-4.1-4.1-5.928-9.611-5.49-14.969c-1.645,6.303-0.002,13.287,4.938,18.225
							c7.412,7.412,19.43,7.412,26.842,0C137.29,150.845,138.782,148.407,139.696,145.815z"/>
					</g>
				</g>
			</g>
			<g>
				<g>
					<path style="fill:#A7C3D2;" d="M53.469,223.453c-4.175,0-8.1-1.626-11.053-4.578c-0.768-0.768-1.456-1.616-2.046-2.52
						c-0.226-0.345-0.226-0.79-0.002-1.136c0.194-0.3,0.525-0.477,0.875-0.477c0.054,0,0.108,0.005,0.163,0.014l7.873,1.246
						l4.4-8.632l-6.852-6.853l-6.644,3.385c-0.15,0.077-0.313,0.114-0.474,0.114c-0.247,0-0.492-0.088-0.687-0.258
						c-0.32-0.281-0.438-0.729-0.297-1.13c0.777-2.21,2.019-4.179,3.689-5.852c2.951-2.952,6.876-4.577,11.05-4.577
						c4.174,0,8.099,1.626,11.05,4.577c2.952,2.953,4.578,6.877,4.579,11.051c0.001,4.175-1.625,8.099-4.577,11.05
						C61.566,221.828,57.643,223.453,53.469,223.453z"/>
					<path style="fill:#414042;" d="M53.466,193.241c3.732,0,7.465,1.424,10.313,4.271c5.697,5.697,5.699,14.932,0.002,20.627
						c-2.848,2.848-6.579,4.271-10.312,4.271s-7.467-1.425-10.315-4.273c-0.73-0.73-1.367-1.52-1.91-2.352l8.621,1.365l5.088-9.982
						l-7.924-7.924l-7.318,3.729c0.701-1.994,1.85-3.865,3.443-5.461C46.001,194.665,49.733,193.241,53.466,193.241 M53.466,191.156
						c-4.452,0-8.639,1.734-11.786,4.882c-1.783,1.785-3.107,3.885-3.937,6.244c-0.282,0.804-0.048,1.699,0.594,2.26
						c0.389,0.34,0.878,0.516,1.374,0.516c0.322,0,0.646-0.075,0.945-0.227l5.969-3.041l5.781,5.781l-3.712,7.284l-7.125-1.129
						c-0.109-0.017-0.218-0.025-0.327-0.025c-0.699,0-1.361,0.352-1.749,0.951c-0.448,0.692-0.446,1.583,0.004,2.273
						c0.629,0.963,1.362,1.867,2.183,2.687c3.149,3.149,7.336,4.884,11.789,4.884c4.452,0,8.638-1.734,11.785-4.882
						c3.15-3.148,4.884-7.335,4.883-11.788c0-4.453-1.734-8.639-4.885-11.788C62.104,192.89,57.918,191.156,53.466,191.156
						L53.466,191.156z"/>
				</g>
			</g>
			<g>
				<g>
					<g>
						<path style="fill:#A7C3D2;" d="M67.233,203.005c0.436,4.217-0.959,8.586-4.191,11.816c-5.178,5.18-13.281,5.646-18.99,1.408
							l-2.809-0.443c0.543,0.832,1.18,1.621,1.91,2.352c5.697,5.697,14.932,5.697,20.627,0.002
							C67.874,214.046,69.022,208.126,67.233,203.005z"/>
					</g>
				</g>
			</g>
		</g>
		<path style="opacity:0.5;fill:#C9EBFC;" d="M111.679,125.778c-9.236,7.104-6.176,16.674-6.176,16.674s1.703-7.082,7.414-12.305
			c5.965-5.449,12.256-7.461,12.256-7.461S118.364,120.636,111.679,125.778z"/>
		<path style="opacity:0.5;fill:#C9EBFC;" d="M61.827,197.796c3.576,2.598,3.002,5.299,3.002,5.299s-3.162-3.457-7.453-5.324
			c-4.041-1.76-10.514-1.342-10.514-1.342s4.313-1.896,6.521-1.691C56.981,195.075,59.413,196.044,61.827,197.796z"/>
	</g>
	<g>
		<g>
			<path style="fill:#A7C3D2;" d="M328.888,211.449c-0.74-0.001-1.341-0.601-1.341-1.341v-9.675
				c-1.902-0.554-3.735-1.296-5.472-2.215l-6.921,6.923c-0.252,0.251-0.593,0.393-0.948,0.393c-0.355,0-0.696-0.142-0.948-0.393
				l-9.975-9.973c-0.251-0.251-0.393-0.593-0.393-0.948s0.142-0.697,0.393-0.948l6.844-6.842c-0.946-1.724-1.716-3.544-2.298-5.434
				h-9.797c-0.74,0-1.341-0.601-1.341-1.341v-14.104c0-0.74,0.601-1.341,1.341-1.341h9.679c0.555-1.906,1.296-3.738,2.213-5.47
				L303,151.82c-0.523-0.523-0.523-1.372,0-1.895l9.973-9.975c0.252-0.251,0.593-0.393,0.948-0.393l0,0
				c0.355,0,0.696,0.142,0.948,0.393l6.842,6.844c1.728-0.948,3.549-1.717,5.436-2.297v-9.798c0-0.74,0.601-1.341,1.341-1.341
				h14.102c0.74,0,1.341,0.601,1.341,1.341v9.679c1.904,0.554,3.737,1.295,5.471,2.213l6.922-6.923
				c0.252-0.252,0.593-0.393,0.948-0.393c0.355,0,0.696,0.142,0.948,0.393l9.973,9.973c0.251,0.251,0.393,0.592,0.393,0.948
				c0,0.355-0.142,0.697-0.393,0.948l-6.842,6.842c0.946,1.724,1.716,3.545,2.298,5.434h9.797c0.355,0,0.696,0.142,0.948,0.393
				c0.251,0.251,0.393,0.592,0.393,0.948l-0.002,14.104c0,0.741-0.6,1.341-1.341,1.341h-9.675c-0.554,1.903-1.295,3.736-2.213,5.471
				l6.922,6.924c0.523,0.523,0.523,1.373,0,1.896l-9.973,9.971c-0.262,0.262-0.605,0.393-0.948,0.393s-0.686-0.131-0.948-0.393
				l-6.842-6.841c-1.728,0.948-3.549,1.719-5.436,2.299l0.002,9.796c0,0.355-0.142,0.696-0.393,0.948
				c-0.252,0.251-0.593,0.393-0.948,0.393L328.888,211.449z M335.739,163.287c-5.028,0-9.118,4.09-9.118,9.118
				c0,5.027,4.09,9.116,9.118,9.116c5.028,0,9.118-4.089,9.118-9.116C344.858,167.378,340.768,163.287,335.739,163.287z"/>
			<path style="fill:#414042;" d="M342.589,134.698v10.703c2.502,0.633,4.865,1.592,7.047,2.85l7.635-7.637l9.973,9.973
				l-7.566,7.566c1.291,2.162,2.291,4.51,2.963,6.998h10.805l-0.002,14.104h-10.699c-0.633,2.502-1.594,4.867-2.85,7.047
				l7.635,7.637l-9.973,9.971l-7.566-7.566c-2.162,1.291-4.51,2.293-7,2.963l0.002,10.805l-14.104-0.002v-10.699
				c-2.502-0.633-4.865-1.594-7.047-2.852l-7.635,7.637l-9.975-9.973l7.568-7.566c-1.291-2.162-2.291-4.51-2.963-6.998h-10.805
				v-14.104h10.703c0.633-2.5,1.592-4.865,2.85-7.045l-7.637-7.637l9.973-9.975l7.566,7.568c2.164-1.291,4.51-2.291,7-2.961v-10.807
				H342.589 M335.739,182.862c5.775,0,10.459-4.682,10.459-10.457c0-5.777-4.684-10.459-10.459-10.459
				c-5.775,0-10.459,4.682-10.459,10.459C325.28,178.181,329.964,182.862,335.739,182.862 M373.444,165.151h0.005 M342.589,132.017
				h-14.102c-1.481,0-2.681,1.2-2.681,2.681v8.825c-1.318,0.453-2.604,0.995-3.846,1.624l-6.145-6.145
				c-0.502-0.503-1.184-0.786-1.896-0.786c-0.712,0-1.393,0.282-1.896,0.786l-9.973,9.975c-1.047,1.047-1.047,2.745,0,3.792
				l6.234,6.235c-0.607,1.247-1.131,2.54-1.564,3.869h-8.69c-1.481,0-2.681,1.2-2.681,2.681v14.104c0,1.481,1.199,2.681,2.681,2.681
				h8.823c0.455,1.319,0.997,2.604,1.625,3.844l-6.145,6.143c-0.503,0.502-0.785,1.185-0.785,1.896c0,0.711,0.281,1.393,0.785,1.896
				l9.975,9.973c0.502,0.503,1.185,0.785,1.895,0.785h0.001c0.711,0,1.393-0.283,1.895-0.786l6.234-6.235
				c1.249,0.609,2.542,1.133,3.871,1.567v8.686c0,1.48,1.199,2.681,2.68,2.681l14.103,0.002c0.712,0.001,1.395-0.282,1.897-0.785
				c0.504-0.503,0.786-1.185,0.785-1.896l-0.001-8.822c1.318-0.453,2.604-0.996,3.847-1.626l6.143,6.143
				c0.523,0.523,1.209,0.785,1.896,0.785s1.372-0.262,1.896-0.785l9.973-9.971c1.047-1.047,1.048-2.745,0-3.792l-6.234-6.236
				c0.609-1.249,1.133-2.542,1.567-3.871h8.686c1.48,0,2.681-1.2,2.681-2.681l0.002-13.987c0.002-0.039,0.003-0.078,0.003-0.117
				c0-1.481-1.198-2.681-2.679-2.681h-0.005h-8.823c-0.455-1.319-0.997-2.604-1.625-3.844l6.143-6.143
				c1.047-1.047,1.047-2.745,0-3.792l-9.973-9.973c-0.502-0.503-1.185-0.785-1.896-0.785l0,0c-0.712,0-1.393,0.283-1.896,0.786
				l-6.234,6.235c-1.248-0.608-2.541-1.132-3.871-1.566v-8.689C345.27,133.217,344.07,132.017,342.589,132.017L342.589,132.017z
				 M335.739,180.181c-4.288,0-7.778-3.488-7.778-7.776c0-4.289,3.49-7.778,7.778-7.778c4.288,0,7.778,3.489,7.778,7.778
				C343.518,176.693,340.027,180.181,335.739,180.181L335.739,180.181z"/>
		</g>
		<path style="fill:#A7C3D2;" d="M350.778,151.153c3.723,4.498,5.959,10.271,5.959,16.566c0,14.363-11.643,26.006-26.006,26.006
			c-5.699,0-10.951-1.854-15.234-4.959c4.77,5.766,11.98,9.441,20.047,9.441c14.363,0,26.008-11.644,26.008-26.008
			C361.552,163.534,357.294,155.88,350.778,151.153z"/>
		<path style="fill:#A7C3D2;" d="M328.03,179.464c-1.522-1.84-2.824-4.199-2.824-6.773c0-5.873,4.658-10.744,10.533-10.744
			c2.328,0,4.58,0.865,6.334,2.137c-1.951-2.357-4.9-3.859-8.201-3.859c-5.873,0-10.635,4.762-10.635,10.635
			C323.237,174.401,325.366,177.532,328.03,179.464z"/>
		<path style="opacity:0.5;fill:#C9EBFC;" d="M318.185,172.579c0-10.111,8.195-18.307,18.307-18.307c3.854,0,2.07-3.119-3.467-3.119
			c-10.111,0-18.307,8.195-18.307,18.307C314.718,175.716,318.185,177.155,318.185,172.579z"/>
	</g>
	<g>
		<g>
			<path style="fill:#FFCB05;" d="M169.448,100.431l0.058-1.961c0.689-23.463,19.618-41.842,43.093-41.842
				c23.476,0,42.403,18.379,43.091,41.843l0.058,1.96H169.448z"/>
			<path style="fill:#414042;" d="M212.599,58.532c22.352,0,40.537,17.797,41.188,39.994h-82.377
				C172.062,76.329,190.243,58.532,212.599,58.532 M212.599,54.724c-11.794,0-22.941,4.529-31.39,12.752
				c-8.43,8.205-13.262,19.192-13.607,30.938l-0.115,3.92h3.923h82.377h3.922l-0.114-3.92c-0.345-11.746-5.177-22.734-13.607-30.939
				C235.538,59.252,224.391,54.724,212.599,54.724L212.599,54.724z"/>
		</g>
		<g>
			<path style="fill:#FFCB05;" d="M227.478,61.313c8.965,7.318,14.795,18.334,15.158,30.725H172.12
				c-0.4,2.111-0.645,4.275-0.711,6.488h82.377C253.288,81.542,242.519,67.144,227.478,61.313z"/>
		</g>
		<g>
			<g>
				<polygon style="fill:#FFCB05;" points="201.011,100.38 206.354,49.817 218.839,49.817 224.187,100.38 				"/>
				<path style="fill:#414042;" d="M217.171,51.671l4.955,46.855h-19.055l4.951-46.855H217.171 M220.508,47.962h-3.337h-9.148
					h-3.337l-0.352,3.319l-4.951,46.855l-0.433,4.098h4.121h19.055h4.121l-0.433-4.099l-4.955-46.855L220.508,47.962L220.508,47.962
					z"/>
			</g>
			<g>
				<polygon style="fill:#FFCB05;" points="214.599,51.671 216.765,92.665 203.071,92.665 203.071,98.526 222.126,98.526 
					217.171,51.671 				"/>
			</g>
			<polygon style="opacity:0.5;fill:#FFFAC4;" points="212.599,90.411 205.942,90.411 209.403,53.673 212.599,53.673 			"/>
		</g>
		<g>
			<g>
				<path style="fill:#FFCB05;" d="M169.714,112.577c-3.395,0-6.156-2.762-6.156-6.156v-5.465c0-3.395,2.762-6.156,6.156-6.156
					h85.768c3.396,0,6.158,2.762,6.158,6.156v5.465c0,3.395-2.763,6.156-6.158,6.156H169.714z"/>
				<path style="fill:#414042;" d="M255.482,96.704c2.344,0,4.254,1.908,4.254,4.252v5.465c0,2.346-1.91,4.252-4.254,4.252h-85.768
					c-2.346,0-4.252-1.906-4.252-4.252v-5.465c0-2.344,1.906-4.252,4.252-4.252H255.482 M255.482,92.896h-85.768
					c-4.444,0-8.061,3.616-8.061,8.061v5.465c0,4.445,3.617,8.061,8.061,8.061h85.768c4.446,0,8.064-3.616,8.064-8.061v-5.465
					C263.545,96.511,259.928,92.896,255.482,92.896L255.482,92.896z"/>
			</g>
		</g>
		<g>
			<path style="fill:#FFCB05;" d="M256.491,96.839c0.02,0.158,0.049,0.311,0.049,0.473v5.463c0,2.346-1.908,4.254-4.254,4.254
				h-85.768c-0.35,0-0.686-0.055-1.012-0.135c0.24,2.121,2.023,3.779,4.207,3.779h85.768c2.344,0,4.254-1.906,4.254-4.252v-5.465
				C259.735,98.962,258.349,97.296,256.491,96.839z"/>
		</g>
		<path style="opacity:0.5;fill:#FFFAC4;" d="M217.73,100.778c0,1.242-1.008,2.25-2.252,2.25h-45.672c-1.244,0-2.25-1.008-2.25-2.25
			l0,0c0-1.244,1.006-2.252,2.25-2.252h45.672C216.722,98.526,217.73,99.534,217.73,100.778L217.73,100.778z"/>
		<g style="opacity:0.5;">
			<path style="fill:#FFFAC4;" d="M179.124,88.806c-0.24,0-0.484-0.041-0.723-0.131c-1.076-0.398-1.625-1.596-1.227-2.672
				c6.422-17.324,19.623-20.691,20.182-20.826c1.119-0.27,2.24,0.418,2.51,1.535c0.27,1.113-0.414,2.234-1.525,2.508l0,0
				c-0.473,0.117-11.65,3.076-17.266,18.229C180.765,88.286,179.97,88.806,179.124,88.806z"/>
		</g>
	</g>
</g>
<g>
	<g>
		<g>
			<g>
				<path style="fill:#FFFFFF;" d="M259.029,425.197l8.748-127.117c0-4.572-3.453-8.321-9.988-10.844
					c-7.799-3.012-31.389-9.608-32.389-9.889l-0.141-0.038h-24.158l-0.135,0.038c-0.93,0.253-22.793,6.247-29.545,9.948
					c-7.262,3.984-10.359,6.667-10.355,9.044l8.951,128.857H259.029z"/>
			</g>
			<g>
				<path style="fill:#414042;" d="M168.963,425.197h2.113l-8.959-128.93c0-2.303,5.355-5.602,9.811-8.047
					c6.721-3.684,29.314-9.856,29.314-9.856h23.873c0,0,24.451,6.827,32.293,9.856c4.766,1.837,9.316,4.962,9.316,9.859
					l-8.752,127.117h2.117l8.74-126.973l0.002-0.073v-0.071c0-3.519-1.848-8.427-10.664-11.826
					c-7.846-3.031-31.484-9.642-32.486-9.921l-0.279-0.078h-24.443l-0.271,0.075c-0.932,0.254-22.914,6.28-29.773,10.042
					c-7.848,4.306-10.904,7.08-10.904,9.896v0.072l0.004,0.073L168.963,425.197z"/>
			</g>
		</g>
	</g>
	<g>
		<g>
			<path style="fill:#F8AEA2;" d="M212.951,298.45c-4.973-0.297-12.813-16.41-14.334-19.636l-0.115-0.251l2.391-32.222l21.074-0.214
				l2.576,32.088l-0.039,0.166c-0.813,3.351-5.18,20.073-11.342,20.073C213.092,298.455,213.021,298.453,212.951,298.45z"/>
		</g>
		<g>
			<path style="fill:#414042;" d="M220.994,247.192l2.484,30.941c0,0-4.672,19.268-10.317,19.268c-0.049,0-0.1-0.002-0.146-0.005
				c-4.602-0.273-13.443-19.032-13.443-19.032l2.299-30.978L220.994,247.192 M222.939,245.064l-1.969,0.021l-19.119,0.193
				l-1.939,0.018l-0.142,1.934l-2.299,30.977l-0.041,0.554l0.236,0.502c0.09,0.196,2.283,4.833,5.084,9.586
				c5.445,9.232,8.277,10.542,10.137,10.652c0.096,0.006,0.184,0.009,0.275,0.009c3.391,0,6.328-3.489,9.24-10.978
				c1.904-4.892,3.076-9.699,3.127-9.903l0.08-0.327l-0.027-0.338l-2.484-30.94L222.939,245.064L222.939,245.064z"/>
		</g>
	</g>
	<g>
		<g>
			<g>
				<path style="fill:#FBC4AB;" d="M221.375,276.002c-16.102,0-29.355-12.107-30.828-28.164l-2.779-30.298
					c-0.756-8.247,1.746-16.293,7.039-22.657c5.295-6.366,12.754-10.287,20.998-11.042c0.953-0.088,1.914-0.132,2.865-0.132
					c16.105,0,29.359,12.109,30.83,28.167l2.779,30.301c0.756,8.243-1.742,16.287-7.037,22.65
					c-5.295,6.367-12.752,10.288-20.996,11.043c-0.955,0.088-1.918,0.131-2.869,0.131
					C221.375,276.002,221.375,276.002,221.375,276.002z"/>
			</g>
			<g>
				<path style="fill:#414042;" d="M218.67,184.763c15.301,0,28.357,11.671,29.781,27.21l2.777,30.299
					c1.512,16.463-10.611,31.039-27.08,32.55c-0.932,0.084-1.855,0.125-2.773,0.125c-15.299,0-28.354-11.672-29.777-27.204
					l-2.779-30.301c-1.51-16.469,10.611-31.044,27.082-32.552C216.832,184.805,217.756,184.763,218.67,184.763 M218.67,182.655
					c-0.982,0-1.977,0.046-2.959,0.136c-8.529,0.781-16.238,4.836-21.715,11.417c-5.475,6.581-8.061,14.9-7.279,23.427l2.781,30.301
					c0.734,8.009,4.416,15.395,10.367,20.796c5.916,5.369,13.553,8.324,21.51,8.324c0.984,0,1.982-0.044,2.965-0.134
					c8.529-0.781,16.234-4.835,21.713-11.418c5.473-6.582,8.061-14.899,7.275-23.424l-2.777-30.3
					c-0.734-8.01-4.418-15.398-10.369-20.8C234.268,185.612,226.629,182.655,218.67,182.655L218.67,182.655z"/>
			</g>
		</g>
		<g>
			<path style="fill:#F8AEA2;" d="M215.9,184.891c1.404-0.128,2.785-0.124,4.156-0.058c1.984,16.427-2.574,34.128-11.996,49.943
				c-8.033,11.892,0.121,30.089,14.369,40.115c-15.748,0.545-29.375-11.26-30.832-27.147l-2.779-30.301
				C187.309,200.974,199.43,186.398,215.9,184.891z"/>
		</g>
		<g>
			<g>
				<path style="fill:#4D3C2F;" d="M186.203,238.035c-0.174,0-0.346-0.042-0.502-0.127c-0.27-0.146-0.461-0.399-0.527-0.697
					c-0.176-0.788-4.299-19.416-3.256-27.435c2.453-18.841,16.416-32,33.951-32c0.195,0,0.391,0.001,0.584,0.005
					c11.289,0.198,15.807,0.799,21.67,2.074c0.197,0.042,0.375,0.141,0.518,0.283c6.6,6.585,9.895,17.008,8.816,27.882
					c-0.039,0.427-0.336,0.786-0.746,0.907c-4.16,1.229-9.346,1.853-15.414,1.853c-0.004,0-0.004,0-0.004,0
					c-7.381-0.002-14.234-0.904-17.918-1.389c-0.672-0.089-1.289-0.17-1.73-0.221c-7.147,21.89-24.336,28.525-25.074,28.798
					C186.455,238.014,186.326,238.035,186.203,238.035z"/>
			</g>
			<g>
				<path style="fill:#414042;" d="M215.869,178.831c0.189,0,0.379,0.002,0.566,0.004c10.727,0.189,15.377,0.727,21.461,2.051
					c6.678,6.661,9.516,16.921,8.516,27.031c-4.605,1.361-9.973,1.809-15.119,1.809c-9.91,0-19.006-1.664-20.262-1.664
					c-0.09,0-0.143,0.008-0.148,0.027c-6.918,22.267-24.68,28.893-24.68,28.893s-4.27-19.144-3.238-27.07
					C185.443,190.873,199.395,178.831,215.869,178.831 M215.869,176.722c-18.082,0-32.471,13.536-34.994,32.918
					c-1.07,8.202,3.092,27.004,3.271,27.801c0.133,0.594,0.516,1.102,1.051,1.394c0.313,0.17,0.658,0.254,1.006,0.254
					c0.252,0,0.498-0.043,0.736-0.131c0.746-0.278,17.969-6.926,25.434-28.636c0.273,0.037,0.57,0.076,0.863,0.114
					c3.707,0.489,10.607,1.398,18.057,1.398c6.17,0,11.461-0.637,15.715-1.896c0.824-0.242,1.416-0.961,1.502-1.815
					c1.105-11.184-2.303-21.925-9.121-28.731c-0.287-0.285-0.648-0.482-1.045-0.567c-6.65-1.447-11.557-1.917-21.869-2.098
					C216.271,176.723,216.07,176.722,215.869,176.722L215.869,176.722z"/>
			</g>
		</g>
		<g>
			<g>
				<path style="fill:#F8AEA2;" d="M195.668,243.623c-1.094,0.892-2.443,1.509-3.943,1.713c-4.256,0.568-8.162-2.421-8.701-6.677
					c-0.527-4.255,2.506-8.179,6.756-8.732c2.559-0.346,4.984,0.584,6.633,2.303"/>
			</g>
			<g>
				<path style="fill:#414042;" d="M195.668,243.623c0,0-0.104,0.097-0.299,0.281c-0.199,0.178-0.451,0.475-0.895,0.74
					c-0.416,0.314-0.973,0.599-1.645,0.872c-0.355,0.103-0.691,0.226-1.135,0.33c-0.381,0.071-0.77,0.138-1.262,0.149
					c-0.93,0.035-1.928-0.075-2.941-0.436c-1.006-0.352-2.021-0.916-2.883-1.732c-0.857-0.806-1.613-1.821-2.068-2.995
					c-0.242-0.581-0.4-1.198-0.506-1.824l-0.021-0.117l-0.012-0.059l-0.004-0.029l-0.01-0.084l-0.018-0.211l-0.035-0.42
					c-0.025-0.276-0.002-0.659,0-0.984c0.086-1.29,0.488-2.528,1.096-3.623c0.602-1.102,1.471-2.009,2.416-2.711
					c0.949-0.707,2.025-1.153,3.066-1.381c0.26-0.07,0.52-0.101,0.775-0.134l0.379-0.049c0.199-0.015,0.256-0.004,0.391-0.009
					c0.227,0.005,0.445-0.003,0.676,0.009c0.248,0.025,0.49,0.052,0.727,0.077c0.469,0.052,0.879,0.182,1.279,0.286
					c0.381,0.162,0.756,0.266,1.07,0.453c0.652,0.322,1.156,0.703,1.537,1.038c0.186,0.173,0.348,0.328,0.492,0.464
					c0.123,0.151,0.229,0.282,0.314,0.387c0.17,0.206,0.258,0.317,0.258,0.317s-0.117-0.083-0.336-0.233
					c-0.107-0.076-0.244-0.168-0.398-0.276c-0.166-0.092-0.355-0.196-0.568-0.314c-0.426-0.225-0.965-0.452-1.592-0.63
					c-0.627-0.181-1.369-0.284-2.131-0.283c-0.186,0.007-0.373,0.014-0.566,0.02c-0.207,0.02-0.438,0.063-0.66,0.097l-0.299,0.044
					l-0.311,0.076c-0.207,0.051-0.418,0.097-0.623,0.179c-0.822,0.28-1.623,0.738-2.34,1.331c-0.721,0.594-1.309,1.37-1.766,2.216
					c-0.455,0.851-0.74,1.818-0.783,2.782c0,0.237-0.037,0.418-0.021,0.702l0.027,0.423l0.016,0.209v0.014
					c-0.014-0.108-0.006-0.025-0.006-0.045l0.006,0.022l0.008,0.044l0.014,0.092c0.068,0.48,0.182,0.955,0.357,1.404
					c0.338,0.896,0.828,1.733,1.473,2.408c0.643,0.673,1.383,1.226,2.172,1.599c0.783,0.368,1.613,0.591,2.367,0.683
					c0.355,0.059,0.773,0.042,1.158,0.047c0.318-0.016,0.693-0.069,1.012-0.096c0.637-0.139,1.209-0.266,1.645-0.457
					c0.455-0.151,0.803-0.355,1.039-0.475C195.539,243.688,195.668,243.623,195.668,243.623z"/>
			</g>
		</g>
		<g>
			<path style="fill:#F79C87;" d="M231.861,256.283c-2.096,0-4.35-0.35-6.627-1.29c-0.402-0.167-0.596-0.628-0.428-1.03
				c0.166-0.401,0.629-0.594,1.029-0.426c7.898,3.262,15.811-1.424,15.891-1.471c0.371-0.225,0.856-0.105,1.082,0.268
				c0.225,0.374,0.104,0.857-0.27,1.082C242.283,253.572,237.701,256.283,231.861,256.283z"/>
		</g>
		<g>
			<path style="fill:#F79C87;" d="M233.793,245.158c-0.271,0-0.559-0.012-0.859-0.033c-0.434-0.035-0.758-0.412-0.725-0.847
				c0.033-0.433,0.414-0.748,0.844-0.725c1.615,0.126,2.674-0.131,2.982-0.716c0.617-1.165-1.043-3.873-1.945-5.004
				c-0.271-0.34-0.215-0.834,0.123-1.107c0.34-0.27,0.836-0.216,1.109,0.126c0.348,0.436,3.367,4.338,2.105,6.721
				C236.871,244.628,235.648,245.158,233.793,245.158z"/>
		</g>
		<g>
			<g>
				<g>
					<path style="fill:#F6BE3A;" d="M234.602,230.855c-5.838,0-11.529-1.254-16.916-3.729c-1.936-0.889-4.1-2.273-6.389-3.739
						c-3.887-2.487-8.293-5.307-13.115-6.764c-2.25-0.682-2.299-2.074-2.213-2.641c0.543-3.679,11.797-7.993,17.24-7.993
						c3.039,0,4.184,1.169,4.592,2.254l36.744,1.703c0.232,0.01,0.453,0.097,0.629,0.245c0.023,0.019,2.934,2.338,11.035,4.069
						c1.719,0.367,2.639,1.097,2.734,2.169c0.066,0.733,0.264,2.956-10.088,7.211C257.727,224.419,247.963,230.855,234.602,230.855z
						"/>
				</g>
				<g>
					<path style="fill:#414042;" d="M213.209,207.044c2.131,0,3.631,0.628,3.742,2.217l37.547,1.739c0,0,2.938,2.465,11.49,4.293
						c5.154,1.102-1.061,4.725-7.648,7.422h0.004c0,0-10.004,7.087-23.742,7.087c-5.084,0-10.682-0.971-16.475-3.632
						c-5.057-2.32-11.768-8.175-19.639-10.554C192.459,213.789,206.225,207.044,213.209,207.044 M258.344,222.714h0.004
						 M213.209,204.935L213.209,204.935c-5.301,0-17.604,4.302-18.285,8.893c-0.096,0.654-0.172,2.86,2.951,3.804
						c4.684,1.416,9.023,4.194,12.854,6.645c2.322,1.485,4.516,2.89,6.519,3.81c5.525,2.535,11.361,3.822,17.354,3.822
						c13.336,0,23.193-6.278,24.76-7.334c1.947-0.805,4.629-2.006,6.77-3.313c1.898-1.162,4.055-2.771,3.863-4.924
						c-0.096-1.091-0.793-2.515-3.565-3.108c-7.76-1.657-10.57-3.842-10.598-3.863c-0.356-0.297-0.777-0.451-1.238-0.474
						l-36.105-1.672C217.225,205.131,214.258,204.935,213.209,204.935L213.209,204.935z"/>
				</g>
			</g>
			<g>
				<g>
					<path style="fill:#F6BE3A;" d="M258.344,222.714c0,0-18.773,13.303-40.217,3.455c-5.057-2.32-11.768-8.175-19.639-10.554
						c-7.871-2.383,17.988-13.148,18.463-6.354C218.127,226.169,258.344,222.714,258.344,222.714z"/>
				</g>
			</g>
			<g>
				<g>
					<path style="fill:#F7C43A;" d="M180.393,230.752c-0.131,0-0.264-0.023-0.389-0.075c-0.338-0.134-0.578-0.429-0.646-0.781
						l-0.051-0.274c-0.086-0.436-0.168-0.873-0.238-1.316c-4.34-26.643,9.455-51.217,30.748-54.78
						c2.314-0.387,4.643-0.584,6.924-0.584c19.838,0,35,14.372,38.621,36.615c0.072,0.452,0.133,0.903,0.195,1.353l0.031,0.254
						c0.051,0.362-0.09,0.723-0.373,0.956c-0.287,0.234-7.152,5.746-21.809,5.747c-1.277,0.001-2.596-0.043-3.918-0.129
						c-2.326-0.149-4.672-0.225-6.971-0.225c-9.393,0-16.592,1.252-21.357,2.081c-0.652,0.114-1.268,0.22-1.836,0.314
						c-3.746,0.63-14.492,7.9-18.314,10.648C180.826,230.685,180.613,230.752,180.393,230.752z"/>
				</g>
				<g>
					<path style="fill:#414042;" d="M216.74,173.994c18.059,0,33.795,12.477,37.582,35.731c0.084,0.528,0.152,1.054,0.223,1.579
						c0,0-6.691,5.507-21.139,5.507c-1.227,0-2.51-0.039-3.852-0.126c-2.471-0.158-4.814-0.227-7.039-0.227
						c-10.758,0-18.59,1.612-23.365,2.409c-4.813,0.808-18.758,10.831-18.758,10.831c-0.098-0.518-0.199-1.037-0.285-1.563
						c-4.252-26.116,9.129-50.099,29.887-53.571C212.264,174.184,214.521,173.994,216.74,173.994 M216.74,171.886
						c-2.34,0-4.727,0.202-7.096,0.599c-21.867,3.658-36.051,28.774-31.617,55.99c0.072,0.454,0.158,0.901,0.244,1.346l0.053,0.271
						c0.131,0.708,0.619,1.298,1.289,1.565c0.25,0.1,0.518,0.15,0.779,0.15c0.436,0,0.867-0.135,1.23-0.396
						c5.24-3.765,14.725-9.934,17.879-10.464c0.566-0.093,1.182-0.2,1.838-0.314c4.732-0.824,11.877-2.066,21.178-2.066
						c2.275,0,4.6,0.074,6.902,0.223c1.346,0.087,2.686,0.131,3.986,0.131c15.029,0,22.18-5.744,22.479-5.988
						c0.563-0.464,0.848-1.186,0.748-1.91l-0.033-0.254c-0.063-0.46-0.123-0.921-0.197-1.384
						C252.691,186.606,237.123,171.886,216.74,171.886L216.74,171.886z"/>
				</g>
			</g>
			<g>
				<g>
					<path style="fill:#F6BE3A;" d="M222.76,216.467c-10.879-0.024-18.801,1.595-23.609,2.4
						c-4.813,0.808-18.758,10.831-18.758,10.831c-0.098-0.518-0.199-1.037-0.285-1.563c-2.602-15.97,1.402-31.13,9.641-41.305
						C204.426,191.31,217.475,202.081,222.76,216.467z"/>
				</g>
			</g>
			<g>
				<g>
					<g>
						<path style="fill:#FFD140;" d="M242.557,214.512c-0.475,0-0.895-0.32-1.02-0.787c-5.305-20.233-20.916-34.919-37.123-34.919
							c-1.498,0-3.014,0.126-4.502,0.375c-0.057,0.01-0.115,0.015-0.176,0.015c-0.43,0-0.828-0.266-0.984-0.681
							c-0.178-0.471,0.002-1.001,0.428-1.268c3.645-2.271,7.592-3.862,11.738-4.726c2.4-0.499,4.852-0.751,7.287-0.751
							c18.932,0,35.67,14.905,39.795,35.441c0.131,0.642-0.236,1.238-0.664,1.929c-0.115,0.185-0.299,0.484-0.367,0.634
							c-0.014,0.349-0.203,0.675-0.512,0.858c-0.232,0.139-5.768,3.392-13.838,3.878
							C242.602,214.512,242.578,214.512,242.557,214.512z"/>
					</g>
					<g>
						<path style="fill:#414042;" d="M218.205,172.823c18.105,0,34.668,14.22,38.762,34.594c0.094,0.464-1.131,1.845-1.051,2.31
							c0,0-5.451,3.254-13.359,3.73c-5.059-19.294-20.596-35.706-38.143-35.706c-1.545,0-3.105,0.126-4.678,0.39
							c3.443-2.147,7.266-3.727,11.395-4.588C213.498,173.06,215.865,172.823,218.205,172.823 M218.205,170.714
							c-2.508,0-5.033,0.261-7.5,0.773c-4.271,0.89-8.336,2.527-12.082,4.865c-0.855,0.532-1.213,1.593-0.857,2.535
							c0.314,0.83,1.107,1.362,1.969,1.362c0.119,0,0.238-0.009,0.355-0.031c1.43-0.239,2.883-0.359,4.324-0.359
							c7.826,0,15.533,3.465,22.285,10.021c6.484,6.298,11.395,14.859,13.818,24.111c0.246,0.931,1.088,1.573,2.039,1.573
							c0.045,0,0.084-0.001,0.129-0.003c8.324-0.501,14.07-3.882,14.313-4.025c0.535-0.32,0.893-0.854,0.996-1.446
							c0.064-0.118,0.166-0.281,0.238-0.399c0.477-0.77,1.016-1.643,0.801-2.694C254.809,185.975,237.639,170.714,218.205,170.714
							L218.205,170.714z"/>
					</g>
				</g>
			</g>
			<g>
				<g>
					<path style="fill:#F7922B;" d="M242.557,214.512c-0.475,0-0.895-0.32-1.02-0.787c-5.305-20.233-20.916-34.92-37.123-34.92
						c-1.498,0-3.014,0.127-4.502,0.376c-0.055,0.01-0.115,0.015-0.176,0.015c-0.43,0-0.828-0.266-0.984-0.681
						c-0.178-0.471,0.002-1.001,0.428-1.268c0.922-0.573,1.906-1.126,2.928-1.643c0.129-0.065,0.271-0.104,0.414-0.111
						c0.578-0.033,1.158-0.05,1.738-0.05c18.564,0,38.178,16.675,43.727,37.167c0.076,0.282,0.031,0.584-0.123,0.832
						c-0.154,0.249-0.406,0.422-0.689,0.479c-1.502,0.297-3.031,0.496-4.551,0.59C242.604,214.512,242.58,214.512,242.557,214.512z"
						/>
				</g>
				<g>
					<path style="fill:#414042;" d="M204.26,176.497c18.357,0,37.41,16.82,42.709,36.389c-1.355,0.269-2.834,0.474-4.412,0.571
						c-5.059-19.294-20.596-35.706-38.143-35.706c-1.545,0-3.105,0.126-4.678,0.39c0.924-0.573,1.873-1.102,2.848-1.595
						C203.143,176.513,203.701,176.497,204.26,176.497 M204.26,174.389L204.26,174.389c-0.598,0-1.203,0.017-1.797,0.05
						c-0.289,0.017-0.574,0.093-0.832,0.224c-1.047,0.531-2.059,1.099-3.006,1.689c-0.857,0.533-1.215,1.594-0.859,2.536
						c0.314,0.83,1.107,1.362,1.969,1.362c0.119,0,0.238-0.009,0.355-0.031c1.43-0.239,2.883-0.359,4.322-0.359
						c7.828,0,15.535,3.466,22.287,10.022c6.484,6.296,11.395,14.857,13.818,24.109c0.246,0.931,1.088,1.573,2.039,1.573
						c0.045,0,0.088-0.001,0.133-0.004c1.564-0.098,3.143-0.302,4.689-0.607c0.57-0.112,1.072-0.46,1.381-0.957
						c0.307-0.496,0.395-1.097,0.242-1.663C243.338,191.412,223.268,174.389,204.26,174.389L204.26,174.389z"/>
				</g>
			</g>
		</g>
		<g>
			<path style="fill:#F8AEA2;" d="M231.748,260.418c0.053,0.58,1.305,0.936,2.791,0.798c1.494-0.136,2.656-0.715,2.606-1.294
				c-0.053-0.578-1.305-0.936-2.795-0.798C232.859,259.261,231.693,259.842,231.748,260.418z"/>
		</g>
	</g>
	<g>
		<g>
			<path style="fill:#FBC4AB;" d="M283.621,328.633c-12.303,1.786-23.92,10.087-28.078,21.567
				c7.74,22.116,16.08,44.918,16.08,44.918s0.059,1.038,0.094,1.557c13.455,6.189,17.025,14.77,21.93,1.794
				C299.99,381.688,289.652,351.938,283.621,328.633z"/>
			<path style="fill:#414042;" d="M287.983,406.292c-0.002,0-0.002,0-0.002,0c-2.172,0-4.445-1.462-7.596-3.485
				c-2.406-1.545-5.4-3.468-9.109-5.174l-0.568-0.261l-0.043-0.626c-0.025-0.399-0.066-1.1-0.082-1.412
				c-0.73-2.002-8.703-23.837-16.035-44.784l-0.123-0.354l0.129-0.353c4.127-11.399,15.748-20.342,28.914-22.253l0.94-0.136
				l0.234,0.916c0.975,3.762,2.041,7.626,3.174,11.716c5.744,20.796,12.256,44.366,6.816,58.756
				C292.631,404.133,290.703,406.292,287.983,406.292z M272.73,395.984c3.574,1.696,6.455,3.547,8.793,5.048
				c2.742,1.761,4.908,3.15,6.457,3.15h0.002c1.176,0,2.65-0.723,4.676-6.087c5.195-13.746-1.217-36.963-6.879-57.448
				c-1.039-3.766-2.027-7.338-2.938-10.823c-11.9,2.054-22.299,10.131-26.178,20.388c7.615,21.742,15.869,44.318,15.951,44.546
				l0.053,0.145l0.01,0.158C272.678,395.063,272.703,395.524,272.73,395.984z"/>
		</g>
		<g>
			<path style="fill:#F8AEA2;" d="M256.387,348.142c-0.309,0.674-0.59,1.359-0.844,2.059c6.91,19.743,14.293,40.019,15.801,44.147
				c0.098-0.351,0.207-0.702,0.295-1.054C276.488,375.101,271.715,356.915,256.387,348.142z"/>
		</g>
		<g>
			<path style="fill:#FFFFFF;" d="M253.301,288.703c3.871-1.779,8.367-1.695,12.586,0.437c8.539,4.319,17.111,30.844,22.728,59.383
				c-10.475,1.816-22.266,7.884-31.91,6.829c-1.631-4.644-3.428-12.557-4.981-17.06"/>
			<path style="fill:#414042;" d="M259.01,356.528c-0.818,0-1.627-0.042-2.42-0.128l-0.662-0.073l-0.219-0.626
				c-0.85-2.425-1.746-5.73-2.613-8.926c-0.799-2.942-1.625-5.984-2.367-8.139c-0.192-0.552,0.101-1.151,0.652-1.341
				c0.553-0.191,1.148,0.103,1.342,0.653c0.764,2.22,1.561,5.16,2.406,8.273c0.781,2.885,1.588,5.855,2.352,8.142
				c5.678,0.42,12.309-1.641,18.723-3.629c3.699-1.148,7.514-2.332,11.168-3.054c-6.367-31.928-14.756-53.957-21.959-57.602
				c-3.867-1.953-8.012-2.102-11.672-0.421c-0.531,0.245-1.156,0.013-1.398-0.517c-0.244-0.53-0.012-1.153,0.518-1.398
				c4.258-1.956,9.051-1.794,13.506,0.454c11.805,5.974,20.805,47.528,23.283,60.121l0.207,1.058l-1.063,0.185
				c-3.842,0.665-7.971,1.947-11.965,3.185C270.828,354.61,264.65,356.527,259.01,356.528z"/>
		</g>
	</g>
	<g>
		<g>
			<path style="fill:#FBC4AB;" d="M142.719,325.996c12.254,2.07,23.676,10.641,27.563,22.209
				c-8.252,21.932-17.127,44.537-17.127,44.537s-0.082,1.033-0.125,1.553c-13.6,5.871-19.867,15.166-22.5,1.546
				C126.512,375.033,136.145,349.149,142.719,325.996z"/>
			<path style="fill:#414042;" d="M135.314,403.94c-3.805,0-5.105-4.221-5.818-7.9c-3.439-17.816,2.873-38.93,8.98-59.349
				c1.086-3.629,2.205-7.382,3.229-10.985l0.26-0.907l0.93,0.156c13.119,2.219,24.525,11.427,28.389,22.915l0.117,0.357
				l-0.133,0.351c-7.818,20.777-16.299,42.427-17.076,44.404l-0.164,2.031l-0.58,0.25c-3.623,1.564-6.688,3.357-9.393,4.94
				C140.49,402.292,137.67,403.94,135.314,403.94z M143.473,327.204c-0.957,3.33-1.982,6.763-2.977,10.092
				c-6.033,20.174-12.271,41.037-8.928,58.346c1.059,5.487,2.561,6.19,3.746,6.19c1.785,0,4.383-1.522,7.676-3.449
				c2.611-1.527,5.553-3.25,9.037-4.802l0.086-1.08l0.059-0.145c0.088-0.225,8.871-22.603,16.988-44.167
				C165.521,337.851,155.316,329.534,143.473,327.204z"/>
		</g>
		<g>
			<path style="fill:#F8AEA2;" d="M153.154,392.742c0,0,8.875-22.605,17.127-44.537c-1.27-3.773-3.348-7.22-5.986-10.232
				c-10.332,16.906-15.156,37.493-14.137,57.659c0.92-0.456,1.871-0.908,2.871-1.337
				C153.072,393.775,153.154,392.742,153.154,392.742z"/>
		</g>
		<g>
			<path style="fill:#FFFFFF;" d="M173.967,286.784c-3.826-1.869-8.324-1.894-12.592,0.14c-8.645,4.116-17.832,30.433-24.115,58.834
				c10.43,2.06,22.076,8.402,31.742,7.577c1.74-4.605,3.012-6.686,4.666-11.146"/>
			<path style="fill:#414042;" d="M167.244,354.462c-5.795,0-12.139-2.132-18.297-4.202c-3.963-1.333-8.064-2.712-11.893-3.467
				l-1.059-0.208l0.236-1.054c2.77-12.533,12.742-53.869,24.686-59.558c4.502-2.146,9.301-2.193,13.512-0.139
				c0.523,0.258,0.74,0.889,0.482,1.411c-0.254,0.522-0.887,0.74-1.408,0.484c-3.621-1.769-7.77-1.716-11.68,0.145
				c-7.287,3.474-16.188,25.299-23.303,57.071c3.641,0.808,7.426,2.081,11.098,3.315c6.367,2.141,12.951,4.355,18.637,4.069
				c0.768-1.98,1.449-3.499,2.111-4.972c0.762-1.699,1.482-3.302,2.313-5.536c0.203-0.546,0.809-0.822,1.354-0.622
				c0.547,0.202,0.826,0.809,0.623,1.354c-0.852,2.301-1.621,4.012-2.365,5.666c-0.717,1.599-1.459,3.252-2.307,5.487l-0.234,0.622
				l-0.658,0.056C168.482,354.436,167.865,354.462,167.244,354.462z"/>
		</g>
	</g>
	<g style="opacity:0.7;">
		<path style="fill:#A7C3D2;" d="M158.809,351.303c0,0,12.291-29.797,16.57-36.502c3.035-4.758,3.939,20.691-6.563,37.284
			C164.502,358.904,158.809,351.303,158.809,351.303z"/>
	</g>
	<g style="opacity:0.7;">
		<path style="fill:#A7C3D2;" d="M266.273,351.303c0,0-12.295-29.797-16.57-36.502c-3.037-4.758-3.943,20.691,6.559,37.284
			C260.578,358.904,266.273,351.303,266.273,351.303z"/>
	</g>
	<g>
		<g>
			<path style="fill:#FFCB05;" d="M260.855,425.197l3.666-66.746c0.031-0.566-0.393-1.056-0.959-1.108l-12.803-1.163l6.307-69.385
				c0.004-0.031,0.004-0.063,0.004-0.096c0-2.953-5.844-4.24-7.635-4.565c-0.064-0.011-0.129-0.017-0.188-0.017
				c-0.478,0-0.908,0.324-1.023,0.803l-18.285,74.422h-31.041l-18.283-74.422c-0.117-0.478-0.547-0.803-1.023-0.803
				c-0.063,0-0.125,0.006-0.189,0.017c-1.789,0.325-7.635,1.612-7.635,4.565c0,0.033,0.002,0.065,0.008,0.096l6.309,69.385
				l-12.807,1.163c-0.564,0.054-0.986,0.542-0.955,1.108l3.662,66.746H260.855z"/>
		</g>
		<g>
			<g>
				<path style="fill:#414042;" d="M169.041,425.197l-3.668-66.804l13.854-1.26l-6.402-70.435c0-2.303,6.768-3.527,6.768-3.527
					l18.479,75.224h32.697l18.48-75.224c0,0,6.771,1.225,6.771,3.527l-6.406,70.435l13.856,1.26l-3.67,66.804h2.111l3.664-66.688
					c0.063-1.133-0.785-2.113-1.914-2.216l-11.758-1.07l6.215-68.333c0.006-0.063,0.008-0.127,0.008-0.191
					c0-3.534-5.324-5.027-8.502-5.603c-0.127-0.022-0.252-0.033-0.379-0.033c-0.951,0-1.811,0.648-2.043,1.605l-18.088,73.619
					h-29.389l-18.084-73.619c-0.236-0.957-1.096-1.605-2.047-1.605c-0.125,0-0.25,0.011-0.377,0.033
					c-3.176,0.576-8.502,2.069-8.502,5.603c0,0.065,0.004,0.127,0.01,0.191l6.211,68.333l-11.754,1.07
					c-1.129,0.103-1.975,1.083-1.912,2.216l3.66,66.688H169.041z"/>
			</g>
		</g>
	</g>
	<g>
		<g>
			<path style="fill:#FFCB05;" d="M252.227,357.372l-2.613-0.238l5.721-62.919c-4.121,21.277-5.963,43.315-9.846,64.672
				C248.439,358.887,250.686,358.879,252.227,357.372z"/>
		</g>
	</g>
	<g>
		<g>
			<path style="fill:#FFCB05;" d="M174.301,284.918c-0.857,0.493-1.477,1.088-1.477,1.781l6.402,70.435l-0.68,0.063
				c1.213,0.913,3.633,3.066,3.633,3.066S178.459,309.67,174.301,284.918z"/>
		</g>
	</g>
	<g>
		<g>
			<path style="fill:#FFCB05;" d="M259.799,425.197l3.67-66.804l-4.289-0.389c-3.672,24.038-5.689,49.458-19.65,67.192H259.799z"/>
		</g>
	</g>
	<g>
		<g>
			<path style="fill:#FFCB05;" d="M184.998,397.984c-0.582,0-1.055-0.472-1.055-1.055v-25.972c0-0.581,0.473-1.054,1.055-1.054
				h58.617c0.584,0,1.055,0.473,1.055,1.054v25.972c0,0.583-0.471,1.055-1.055,1.055H184.998z"/>
		</g>
		<g>
			<path style="fill:#414042;" d="M243.615,370.958v25.972h-58.617v-25.972H243.615 M243.615,368.851h-58.617
				c-1.164,0-2.105,0.943-2.105,2.107v25.972c0,1.166,0.941,2.11,2.105,2.11h58.617c1.166,0,2.107-0.944,2.107-2.11v-25.972
				C245.723,369.794,244.781,368.851,243.615,368.851L243.615,368.851z"/>
		</g>
	</g>
	<g>
		<g>
			<path style="fill:#FFCB05;" d="M190.275,379.188c-0.58,0-1.055-0.473-1.055-1.056v-3.099c0-0.58,0.475-1.052,1.055-1.052h48.064
				c0.582,0,1.053,0.472,1.053,1.052v3.099c0,0.583-0.471,1.056-1.053,1.056H190.275z"/>
		</g>
		<g>
			<path style="fill:#414042;" d="M238.34,375.033v3.099h-48.064v-3.099H238.34 M238.34,372.927h-48.064
				c-1.166,0-2.109,0.944-2.109,2.106v3.099c0,1.166,0.943,2.108,2.109,2.108h48.064c1.166,0,2.109-0.942,2.109-2.108v-3.099
				C240.449,373.871,239.506,372.927,238.34,372.927L238.34,372.927z"/>
		</g>
	</g>
	<g>
		<g>
			<path style="fill:#3D535F;" d="M237.266,403.409c-2.084,0-3.811-0.524-5.143-1.56c0.002,0.004,0,0.005-0.008,0.005
				c-0.039,0-0.18-0.024-0.449-0.024c-0.68,0-1.662,0.145-2.705,0.301c-1.25,0.185-2.541,0.377-3.664,0.377
				c-2.484,0-3.191-1.08-3.348-1.986c-0.023-0.141-2.42-14.355-0.436-17.833c0.207-0.362,0.73-0.964,1.902-0.964
				c1.826,0,4.824,1.55,6.363,2.42c1.875-3.2,6.971-11.266,10.684-11.266c0.945,0,2.23,0.455,2.963,2.627
				c0.703,2.075-0.295,3.771-1.498,5.035c0.678-0.193,1.365-0.424,2.07-0.708c5.32-2.134,10.102-3.263,13.83-3.263
				c5.479,0,7.6,2.426,8.412,4.461c2.408,6.014-3.879,14.007-14.316,18.193C246.773,401.29,241.479,403.409,237.266,403.409
				C237.264,403.409,237.266,403.409,237.266,403.409z"/>
		</g>
		<g>
			<path style="fill:#414042;" d="M240.463,373.932c0.82,0,1.508,0.558,1.965,1.912c0.795,2.352-1.318,4.162-2.975,5.482
				c-0.514,0.414-0.986,0.766-1.436,1.086c1.934-0.283,4.094-0.682,6.375-1.602c4.943-1.983,9.684-3.185,13.436-3.185
				c3.652,0,6.369,1.136,7.432,3.795c2.156,5.383-4.004,12.925-13.727,16.827c-5.094,2.039-10.248,4.106-14.268,4.106
				c-1.75,0-3.287-0.393-4.506-1.346c-0.215-0.169-0.598-0.232-1.094-0.232c-1.602,0-4.385,0.678-6.369,0.678
				c-1.236,0-2.16-0.263-2.311-1.112c-0.863-4.98-1.916-14.755-0.557-17.131c0.176-0.306,0.525-0.432,0.986-0.432
				c2.166,0,6.748,2.814,6.748,2.814S236.705,373.931,240.463,373.932 M240.463,371.824L240.463,371.824
				c-3.887,0-8.498,6.621-11.07,10.899c-1.77-0.939-4.23-2.052-5.976-2.052c-1.703,0-2.492,0.932-2.815,1.488
				c-2.207,3.864,0.205,17.944,0.307,18.543c0.186,1.065,1.002,2.858,4.389,2.858c1.201,0,2.531-0.196,3.818-0.388
				c0.959-0.142,1.949-0.289,2.551-0.289c0.035,0,0.06,0.001,0.086,0.001c1.477,1.048,3.33,1.576,5.514,1.576
				c4.418,0,9.807-2.158,15.02-4.245c11.018-4.422,17.561-13.016,14.932-19.578c-0.932-2.336-3.318-5.122-9.389-5.122
				c-3.664,0-8.275,1.038-13.381,3.008c0.334-0.992,0.396-2.112-0.023-3.355C243.441,372.259,241.52,371.824,240.463,371.824
				L240.463,371.824z"/>
		</g>
	</g>
	<g>
		<g>
			<path style="fill:#3D535F;" d="M161.072,417.118c-2.498,0-4.447-0.889-5.795-2.641c-2.004-2.603-2.098-6.368-0.266-10.605
				c1.746-4.026,5.059-8.054,9.322-11.337c5.527-4.245,11.211-8.609,16.074-8.609c0.982,0,1.912,0.177,2.77,0.528
				c0.502-0.02,1.92-0.653,3.059-1.162c1.803-0.808,3.67-1.644,5.115-1.644c1.412,0,2.006,0.799,2.232,1.276
				c0.064,0.133,6.424,13.521,5.436,17.514c-0.274,1.09-1.34,1.641-3.164,1.641c-1.779,0-4.09-0.493-5.414-0.819
				c-1.127,4.393-4.105,14.232-8.137,14.232c-1.072,0-2.047-0.63-2.9-1.871c-1.291-1.884-0.734-3.87,0.123-5.467
				c-0.646,0.394-1.303,0.836-1.949,1.334C171.184,414.408,165.32,417.118,161.072,417.118L161.072,417.118z"/>
		</g>
		<g>
			<path style="fill:#414042;" d="M191.352,382.704c0.592,0,1.049,0.191,1.283,0.677c2.252,4.686,6.037,14.074,5.359,16.803
				c-0.154,0.626-1.021,0.841-2.139,0.841c-2.473,0-6.18-1.054-6.18-1.054s-3.467,14.466-7.371,14.466
				c-0.67,0-1.35-0.423-2.031-1.409c-1.443-2.107,0.139-4.49,1.406-6.259c0.396-0.548,0.758-1.024,1.117-1.468
				c-1.838,0.814-3.861,1.81-5.861,3.351c-5.771,4.441-11.576,7.413-15.863,7.413c-2.063,0-3.773-0.688-4.957-2.23
				c-3.645-4.728,0.334-13.899,8.863-20.465c5.418-4.161,10.916-8.392,15.43-8.392c0.824,0,1.615,0.142,2.367,0.45
				c0.1,0.041,0.219,0.061,0.357,0.061C184.805,385.49,189.084,382.701,191.352,382.704 M191.352,380.595
				c-1.672,0-3.643,0.882-5.549,1.735c-0.814,0.365-2.004,0.897-2.549,1.025c-0.895-0.322-1.85-0.484-2.846-0.484
				c-5.221,0-11.049,4.475-16.684,8.802c-4.439,3.419-7.863,7.593-9.678,11.779c-1.996,4.605-1.854,8.751,0.4,11.671
				c1.529,1.993,3.822,3.049,6.625,3.049c5.488,0,11.906-3.901,16.523-7.372c-0.084,1.104,0.15,2.271,0.941,3.421
				c1.318,1.921,2.775,2.325,3.768,2.325c2.699,0,4.896-2.652,7.123-8.603c0.754-2.013,1.357-4.008,1.758-5.431
				c1.375,0.303,3.186,0.622,4.67,0.622c2.955,0,3.908-1.326,4.186-2.438c1.096-4.427-5.236-17.668-5.508-18.23
				C193.965,381.278,192.803,380.595,191.352,380.595L191.352,380.595L191.352,380.595L191.352,380.595z"/>
		</g>
	</g>
	<g>
		<g>
			
				<rect x="144.149" y="333.145" transform="matrix(0.2626 -0.9649 0.9649 0.2626 -227.611 406.3194)" style="fill:#FFFFFF;" width="15.795" height="37.878"/>
		</g>
		<g>
			<path style="fill:#414042;" d="M136.586,340.786l34.514,9.388l-3.592,13.208l-34.52-9.39L136.586,340.786 M135.105,338.197
				l-0.553,2.034l-3.598,13.207l-0.553,2.036l2.033,0.553l34.52,9.39l2.033,0.554l0.555-2.034l3.594-13.208l0.551-2.036
				l-2.035-0.552l-34.514-9.39L135.105,338.197L135.105,338.197z"/>
		</g>
	</g>
	<g style="opacity:0.7;">
		<g>
			<polygon style="fill:#A7C3D2;" points="160.035,347.163 156.145,360.29 167.508,363.382 171.1,350.174 			"/>
		</g>
	</g>
	<g>
		<g>
			
				<rect x="254.748" y="346.605" transform="matrix(0.9708 -0.2398 0.2398 0.9708 -77.0289 75.9794)" style="fill:#FFFFFF;" width="37.875" height="15.795"/>
		</g>
		<g>
			<path style="fill:#414042;" d="M289.404,343.57l3.285,13.285l-34.725,8.579l-3.283-13.288L289.404,343.57 M290.947,341.018
				l-2.049,0.506l-34.721,8.576l-2.049,0.505l0.506,2.048l3.285,13.29l0.506,2.046l2.045-0.505l34.723-8.581l2.047-0.506
				l-0.504-2.047l-3.285-13.285L290.947,341.018L290.947,341.018z"/>
		</g>
	</g>
	<g style="opacity:0.7;">
		<g>
			<polygon style="fill:#A7C3D2;" points="267.783,362.822 264.543,349.711 254.682,352.147 257.965,365.435 292.69,356.855 
				292.645,356.68 			"/>
		</g>
	</g>
	<g>
		<path style="fill:#FBC4AB;" d="M131.174,398.469c4.271,11.877,9.092,11.224,15.297,12.15c55.354,2.38,82.357-9.918,82.357-9.918
			l-3.387-13.487c0,0-35.752-0.772-73.014-7.39"/>
		<path style="fill:#414042;" d="M160.313,411.976c-4.404,0-9.035-0.095-13.887-0.303c-0.037-0.002-0.072-0.006-0.109-0.011
			c-0.615-0.092-1.215-0.169-1.803-0.243c-5.51-0.697-10.27-1.299-14.332-12.593c-0.197-0.548,0.088-1.151,0.635-1.35
			c0.547-0.198,1.152,0.087,1.35,0.636c3.627,10.078,7.396,10.556,12.613,11.215c0.584,0.074,1.184,0.149,1.793,0.241
			c49.25,2.109,76.143-7.543,81.012-9.49l-2.969-11.833c-5.525-0.165-38.523-1.372-72.371-7.384
			c-0.574-0.102-0.957-0.649-0.855-1.222c0.105-0.573,0.648-0.956,1.225-0.855c36.754,6.526,72.496,7.366,72.852,7.374
			c0.475,0.011,0.885,0.338,1,0.798l3.383,13.488c0.127,0.492-0.121,1.005-0.584,1.217c-0.279,0.127-7.016,3.155-20.646,5.925
			C198.205,409.701,181.971,411.976,160.313,411.976z"/>
	</g>
	<g>
		<path style="fill:#FBC4AB;" d="M293.647,398.469c-4.272,11.877-9.094,11.224-15.297,12.15
			c-53.949-1.186-99.031-26.674-99.031-26.674s9.207-5.268,20.254-4.778c10.699,0.473,9.898,2.077,20.453,2.602
			c13.814,0.688,31.242,1.805,52.367-1.944"/>
		<path style="fill:#414042;" d="M278.35,411.674c-0.01,0-0.016,0-0.023,0c-53.592-1.178-99.074-26.556-99.527-26.81
			c-0.332-0.189-0.533-0.536-0.533-0.917c-0.002-0.378,0.201-0.727,0.529-0.917c0.387-0.221,9.6-5.404,20.822-4.916
			c5.504,0.245,8.064,0.793,10.543,1.322c2.354,0.504,4.787,1.025,9.918,1.28l1.967,0.1c13.434,0.679,30.148,1.523,50.162-2.03
			c0.576-0.102,1.121,0.281,1.225,0.855c0.103,0.572-0.283,1.12-0.855,1.222c-20.248,3.597-37.098,2.744-50.639,2.06l-1.965-0.099
			c-5.301-0.265-7.816-0.803-10.254-1.324c-2.502-0.536-4.867-1.044-10.191-1.277c-7.826-0.346-14.771,2.318-17.912,3.758
			c8.855,4.625,49.6,24.527,96.668,25.585c0.598-0.089,1.184-0.163,1.76-0.236c5.215-0.659,8.984-1.137,12.611-11.215
			c0.193-0.547,0.803-0.831,1.348-0.636c0.549,0.198,0.834,0.802,0.637,1.35c-4.064,11.294-8.824,11.896-14.334,12.593
			c-0.586,0.074-1.185,0.151-1.801,0.243C278.451,411.67,278.4,411.674,278.35,411.674z"/>
	</g>
</g>
</svg>
