<?xml version="1.0" encoding="utf-8"?>
<!-- Generator: Adobe Illustrator 27.5.0, SVG Export Plug-In . SVG Version: 6.00 Build 0)  -->
<svg version="1.1" xmlns="http://www.w3.org/2000/svg" xmlns:xlink="http://www.w3.org/1999/xlink" x="0px" y="0px"
	 viewBox="0 0 1122 1122" style="enable-background:new 0 0 1122 1122;" xml:space="preserve">
<g id="BG">
	<rect style="fill:#F2F2F2;" width="1122" height="1122"/>
</g>
<g id="Object">
	<g>
		<path style="fill:#FFFFFF;" d="M930.436,246.98c-6.89-12.656-20.75-13.513-32.796-8.862c-0.9,0.034-1.801,0.069-2.684,0.099
			c-8.802,0.299-19.309-0.219-27.532,3.095c-5.701,2.298-9.875,6.66-12.178,11.892c-0.342,0.196-0.678,0.302-1.021,0.524
			c-2.571,1.658-5.182,3.247-7.796,4.833c-4.414-1.301-9.281-1.102-13.903,1.393c-3.381,1.825-6.611,3.828-9.775,5.913
			c-0.321,0.098-0.617,0.116-0.944,0.231c-15.159,5.348-29.727,11.864-43.67,19.866c-1.36,0.781-2.517,1.664-3.56,2.599
			c-14.985,3.899-30.006,8.285-44.917,14.392c-25.184,10.316-50,22.479-74.29,35.594c-3.455-0.353-7.186,0.287-11.003,2.394
			c-4.945,2.729-10.937,4.611-17.182,7.11c-5.946,2.38-11.161,4.992-16.198,8.312c0.387-4.415,0.549-8.849,0.356-13.283
			c0.057-4.827-0.293-9.584-1.228-14.202c1.409-40.644-21.57-82.171-68.986-89.566c-8.12-2.564-17.03-4.121-26.986-4.121
			c-10.277,0-19.594,1.489-27.995,4.142c-21.34,1.474-38.1,9.649-50.584,21.546c-4.884,2.342-9.35,5.156-13.455,8.317
			c-15.099,9.982-25.625,24.652-31.462,41.23c-16.695,23.2-25.733,51.509-35.891,78.004c-10.701,27.912-20.735,56.061-30.324,84.373
			c-2.327,6.87-3.446,14.01-3.577,21.202c-0.292,1.597-0.503,3.22-0.76,4.828c-5.877,11.982-9.058,25.337-9.549,38.846
			c-7.257,14.9-10.441,31.911-9.39,48.668c-1.204,24.433,6.364,49.377,22.85,67.18c13.76,20.385,36.702,34.671,68.893,34.671
			c0.349,0,0.669-0.045,1.016-0.048c7.281,2.075,14.96,3.366,23.029,3.585c2.372,0.064,4.743,0.018,7.113,0.061
			c4.673,0.816,9.453,1.319,14.348,1.361c56.606,0.487,121.328-11.937,151.535-60.903c13.929-17.698,20.11-40.986,18.696-63.735
			c1.327-7.414,1.763-14.994,1.403-22.531c0.307-5.803,0.07-11.62-0.62-17.382c-0.013-0.269-0.034-0.538-0.046-0.807
			c0.038-0.626-0.006-1.253,0.02-1.88c2.24-9.37,2.936-19.103,2.401-28.758c0.59-7.065,0.32-14.185-0.58-21.21
			c-0.028-0.365-0.065-0.727-0.097-1.091c-0.026-0.19-0.023-0.383-0.051-0.572c4.132-10.247,6.404-21.001,6.439-32.366l-0.593-5.702
			c0.175-4.635-0.192-9.122-0.935-13.506c0.109-0.074,0.217-0.107,0.326-0.184c15.725-11.062,32.859-19.365,49.988-27.739
			c4.051,1.094,8.56,0.992,13.226-1.07c21.929-9.694,43.501-20.037,64.877-30.758c3.152,0.914,6.839,0.755,10.966-0.981
			c8.115-3.413,16.127-7.027,24.172-10.576c21.603-5.397,40.791-15.23,60.464-24.563c3.336,0.188,6.903-0.609,10.557-3.042
			c3.081-2.052,6.256-3.979,9.43-5.905c2.091-0.85,4.261-1.581,6.39-2.375c7.406-2.227,14.232-5.626,20.529-10.007
			c1-0.151,1.986-0.403,2.991-0.514c2.903-0.322,5.658-1.152,8.164-2.36c2.188-0.828,4.297-2.048,6.507-4.314
			c2.706-2.775,4.294-5.739,5.11-8.899c2.494-0.877,4.972-1.859,7.438-2.81c9.711-3.747,18.469-9.26,19.973-20.521
			C938.072,258.718,935.289,252,930.436,246.98z"/>
		<path style="fill:#FFFFFF;" d="M661.789,835.956c-8.969-2.96-19.192-4.293-23.873-12.382c-0.693-1.197-1.492-2.178-2.305-3.124
			c0.932-3.204,1.081-6.624,0.021-9.937c-3.44-10.749-10.472-19.814-20.565-25.129c-5.578-2.937-11.19-4.503-17.379-5.321
			c-3.406-0.45-6.811-0.313-10.195-0.339c-6.372-5.198-13.642-9.249-22.08-12.029c-7.163-2.36-14.326-4.72-21.488-7.08
			c-3.816-1.196-7.632-1.868-11.447-2.096c-10.965-6.95-23.194-10.719-37.018-11.333c-6.49-0.288-12.981-0.577-19.472-0.866
			c-7.968-3.133-16.476-4.933-25.476-4.933H425.82c-11.252,0-22.796,3.052-33.087,8.34c-12.155,1.411-24.333,2.479-36.554,3.143
			c-12.855,0.699-25.468,5.816-35.21,14.028c-5.471,1.051-10.93,2.15-16.363,3.338c-11.524,2.522-20.533,7.359-27.33,13.651
			c-3.521,0.117-6.78,0.63-9.82,1.428c-0.833-0.059-1.581-0.243-2.453-0.243c-23.831,0-33.033,22.509-27.811,40.135
			c-6.129,0.655-11.085,2.979-15.01,6.258c-2.116-0.013-4.249,0.224-6.367,1.068c-8.153,3.251-15.776,7.227-21.3,14.287
			c-1.492,1.907-2.686,3.876-3.707,5.88c-13.56,10.272-10.78,36.087,8.946,34.063c1.018,0.152,2.081,0.243,3.202,0.243
			c2.658,0,4.973-0.518,7.054-1.319c0.21,0.004,0.412,0.045,0.622,0.043c8.71-0.116,17.417-0.32,26.126-0.516
			c1.372,0.172,2.701,0.408,4.186,0.412c20.734,0.061,41.467,0.122,62.201,0.183c9.886,3.458,21.217,4.395,33.778,1.646
			c2.569-0.562,5.137-1.034,7.705-1.524c7.846,0.023,15.691,0.046,23.538,0.069c8.567,2.258,17.899,2.48,27.452,0.287
			c2.333-0.536,4.699-0.85,7.045-1.28c2.02-0.159,4.033-0.402,6.064-0.487c1.042-0.044,2.075-0.161,3.112-0.254
			c4.52,0.944,9.178,1.474,13.982,1.474h24.692c5.18,0,10.405-0.821,15.569-2.029c19.823,2.463,39.541,4.86,59.8,3.318
			c0.362-0.027,0.698-0.091,1.055-0.125c1.077,0.163,2.163,0.315,3.357,0.305c5.267-0.043,10.534-0.086,15.8-0.129
			c2.343,0.977,5.055,1.509,8.224,1.328l28.444-1.626l45.201-0.369c1.863,0.517,3.87,0.846,6.165,0.737
			c6.283-0.298,12.565-0.596,18.847-0.894c0.053,0.015,0.093,0.049,0.146,0.064c9.618,2.643,21.015-3.236,23.365-13.266
			C680.09,857.669,679.102,841.671,661.789,835.956z"/>
		<g>
			<path style="fill:#B3A48A;" d="M393.944,294.231c0,0-40.448,87.831-57.783,137.524c-17.335,49.694-40.448,131.746-39.293,152.548
				c1.156,20.802,1.156,30.047,3.467,34.67c2.311,4.623,11.557,30.047,26.58,42.76s47.382,34.67,121.345,32.359
				c73.962-2.311,117.878-27.736,136.368-47.382c18.491-19.646,25.425-54.316,25.425-54.316l2.311-49.694l4.623-120.189
				l248.468-105.165l31.203-9.245l9.245-12.712c0,0,19.646-5.778,25.425-12.712c5.778-6.934,16.179-24.269,3.467-35.826
				c-12.712-11.557-31.203-19.646-47.382-8.09c-16.179,11.557-4.623,2.311-4.623,2.311s-6.934-4.623-16.179,1.156
				s-30.047,18.491-30.047,18.491L613.521,353.17v-46.227c0,0-24.269-75.118-99.387-69.34
				C439.015,243.382,393.944,294.231,393.944,294.231z"/>
			<path style="fill:#B3A48A;" d="M190.547,884.776c0,0-13.868-27.736,2.311-39.293c16.179-11.557,41.604-21.958,41.604-21.958
				s-4.623-23.113,10.401-31.203c15.024-8.09,28.892-12.712,28.892-12.712s86.675-40.448,160.637-36.981
				c73.963,3.467,162.949,26.58,190.685,45.071c0,0,12.712,23.113,11.557,35.826c0,0,18.491,2.311,32.359,16.179
				c13.868,13.868,8.09,34.67-4.623,45.071C651.658,895.177,190.547,884.776,190.547,884.776z"/>
			<path style="fill:#948872;" d="M630.065,810.837c-6.165-0.755-12.338-1.456-18.517-2.113
				c-78.036-41.397-168.259-44.503-254.598-28.051c-3.091,0.589-4.104,3.202-3.539,5.509c-14.997,2.299-29.911,5.1-44.736,8.466
				c-14.14,3.211-28.095,7.038-41.932,11.37c-10.726,3.358-22.698,6.201-31.95,12.747c-0.675,0.478-0.024,1.426,0.648,1.408
				c11.296-0.295,22.498-4.523,33.438-7.182c13.326-3.24,26.755-6.112,40.204-8.788c27.129-5.399,54.636-9.381,82.193-11.777
				c53.555-4.656,105.786-1.118,159.129,3.598c0.227,0.02,0.434-0.002,0.65-0.006c11.703,2.907,23.285,6.365,34.678,10.269
				c-35.969-3.063-72.091-4.651-108.143-5.185c-50.48-0.749-100.901,0.453-150.863,8.116c-0.352,0.053-0.24,0.53,0.081,0.54
				c50.247,1.621,100.54,0.924,150.782,2.861c50.33,1.94,100.36,6.561,150.428,11.833
				C636.32,825.323,638.699,811.895,630.065,810.837z"/>
			<path style="fill:#948872;" d="M676.389,869.56c1.871-29.497-25.472-55.222-55.003-55.25c-7.625-0.008-9.489,10.264-1.852,12.315
				c15.963,4.287,27.28,12.47,35.197,23.814c-79.421-14.348-161.049-22.904-241.702-22.189
				c-39.731,0.352-79.363,3.355-118.582,9.805c-19.964,3.284-39.67,7.689-59.167,13.097c-10.519,2.918-21.439,6.012-31.885,10.067
				c4.75-6.169,11.273-11.606,16.089-15.263c10.875-8.257,23.44-13.735,36.619-17.098c3.816-0.974,3.088-6.737-0.958-6.374
				c-0.839,0.075-1.657,0.214-2.489,0.31c-3.298-3.666-4.951-10.514-4.063-15.104c1.029-5.32,5.243-8.466,9.661-11.07
				c5.759-3.394,3.478-12.597-3.609-11.991c-11.164,0.954-20.273,9.721-20.889,21.234c-0.45,8.418,3.68,14.722,10.108,18.338
				c-14.461,2.987-27.79,9.122-39.666,18.503c-9.03,7.133-19.795,17.557-22.032,29.019c-0.568,0.362-1.164,0.682-1.723,1.057
				c-1.494,0.999-1.071,3.6,1.018,3.383c0.095-0.01,0.189-0.026,0.284-0.037c0.029,3.581,0.973,7.232,3.145,10.889
				c2.436,4.103,10.499,4.689,12.762,0c0.242-0.503,0.486-1.007,0.728-1.511c8.666-0.33,17.456-2.517,26.064-4.548
				c29.511,1.097,59.279-0.162,88.658-0.375c39.544-0.287,79.093-0.522,118.638-0.342c78.971,0.36,158.367,0.239,237.208,5.172
				c5.578,0.349,8.076-4.036,7.469-8.041c0.344-0.43,0.649-0.884,0.851-1.376C678.192,873.741,677.407,871.616,676.389,869.56z
				 M429.159,865.484c-38.304-0.106-76.601,0.127-114.895,0.971c22.225-2.492,44.544-4.253,66.863-5.293
				c56.923-2.652,114.11-0.802,170.598,6.704C510.889,866.651,470.048,865.597,429.159,865.484z M585.229,868.878
				c1.059-2.313,0.359-5.146-3.193-5.808c-61.626-11.481-124.056-18.358-186.755-18.456c5.917-0.154,11.834-0.27,17.747-0.314
				c83.102-0.619,164.652,11.31,246.701,22.837c1.246,0.175,2.407,0.09,3.487-0.161c0.488,1.321,0.959,2.659,1.397,4.031
				C638.141,870.455,611.683,869.684,585.229,868.878z"/>
			<path style="fill:#948872;" d="M568.127,386.406c0,0,4.16,11.44,19.76,6.24c15.6-5.2,274.562-112.321,274.562-112.321
				s-2.075-18.999,7.282-25.619c0,0,3.118,12.1,9.358,17.3c6.24,5.2,1.04-21.84,3.12-27.04c2.08-5.2,4.16,3.12,4.16,3.12
				s10.4-8.32,17.68-7.28c0,0,1.04,10.4,8.32,9.36c7.28-1.04,9.36-7.28,9.36-7.28s17.68,2.08,16.64,18.72
				c-1.04,16.64-15.6,32.24-24.96,32.24c-9.36,0-9.36,8.32-9.36,8.32s-4.381,6.666-7.391,5.933s-11.329,1.347-11.329,1.347
				L616.988,422.51l-15.58,2.377C601.407,424.887,553.567,430.086,568.127,386.406z"/>
			<path style="fill:#948872;" d="M320.855,497.56c0,0,77.102,7.461,143.427-42.282s99.487-82.905,99.487-82.905l12.436-4.974
				c0,0-15.752,22.384-11.607,33.991c4.145,11.607,10.778,23.214,24.043,24.043c13.265,0.829,20.726-4.974,20.726-4.974l7.621,2.052
				c0,0-4.305,143.032-5.963,145.52c-1.658,2.487-0.829,14.923-1.658,21.555c-0.829,6.632-0.829,14.094-2.487,20.726
				c-1.658,6.632-4.145,11.607-4.145,14.094c0,2.487-33.162,51.401-77.102,59.692c-43.94,8.291-120.213,17.41-159.178,0
				c-38.966-17.41-62.179-53.889-66.324-65.495c-4.145-11.607-2.487-18.239,0-41.453C302.616,553.935,320.855,497.56,320.855,497.56
				z"/>
			<path style="fill:#E8D85F;" d="M365.331,578.836l-1.046,3.398l10.194-1.045l-22.74,53.844c0,0,13.853,8.364,29.536,6.534
				c15.683-1.83,27.967-8.887,27.967-8.887l-21.694-52.276c0,0,24.047-4.443,37.638-6.012c13.592-1.568,28.229-2.614,28.229-2.614
				L437.21,671.886c0,0,16.205,5.489,29.274,4.705c13.069-0.784,23.524-2.091,23.524-2.091l-21.694-103.244
				c0,0,46.264,3.137,47.571,2.614c1.307-0.523,14.376,0.261,14.376,0.261l-19.342,52.798c0,0,16.728,8.887,28.752,9.148
				c12.023,0.261,24.569-4.182,24.569-4.182l-16.728-58.287l0.261-1.568c0,0-56.98-8.626-89.13-6.535
				S365.331,578.836,365.331,578.836z"/>
		</g>
		<g>
			<g>
				<path style="fill:#59595B;" d="M627.611,795.15c-28.358-16.913-62.017-27.696-93.978-35.33
					c-32.116-7.67-65.138-11.523-98.154-11.594c-66.188-0.144-133.485,14.741-191.954,46.196c-0.953,0.513,0.185,1.864,1.073,1.431
					c59.826-29.101,124.719-44.849,191.379-44.53c32.748,0.157,65.477,4.064,97.321,11.723c32.845,7.9,62.594,20.996,93.24,34.743
					C628.474,798.656,629.255,796.13,627.611,795.15z"/>
				<path style="fill:#59595B;" d="M244.39,797.609c0.666-0.25,0.175-1.173-0.437-1.016c-9.69,2.488-12.467,16.462-4.575,22.547
					c1.097,0.846,2.254-0.56,1.222-1.482C234.321,812.048,236.533,800.564,244.39,797.609z"/>
				<path style="fill:#59595B;" d="M635.387,822.372c-0.156-0.026-0.312-0.051-0.468-0.077c6.877-6.171,3.419-18.544-4.909-21.529
					c-0.638-0.229-0.966,0.611-0.357,0.879c7.629,3.359,8.456,13.075,3.481,18.987c-0.351,0.417-0.232,0.965,0.077,1.382
					c-65.127-10.925-131.053-16.817-197.097-17.242c-33.604-0.216-67.211,0.932-100.718,3.497
					c-32.639,2.498-66.262,5.046-98.236,12.321c-0.678,0.154-0.262,1.172,0.329,1.124c4.15-0.34,8.296-0.72,12.44-1.126
					c-18.291,6.67-36.463,13.858-54.392,21.433c-0.657,0.278-0.178,1.244,0.446,1.037c19.068-6.329,38.067-13.123,56.784-20.429
					c1.141-0.445,0.945-1.715,0.229-2.358c27.646-2.797,55.182-6.696,82.94-8.651c32.902-2.317,65.904-3.355,98.887-3.072
					c67.084,0.577,134.022,6.591,200.145,17.895C637.83,826.931,637.994,822.814,635.387,822.372z"/>
				<path style="fill:#59595B;" d="M193.602,847.974c-10.507,7.092-13.24,23.332-3.879,32.591c0.882,0.873,2.219-0.309,1.47-1.313
					c-7.004-9.39-6.596-22.862,3.087-30.375C194.813,848.465,194.136,847.614,193.602,847.974z"/>
				<path style="fill:#59595B;" d="M656.987,881.669c-77.007-1.83-154.241-0.302-231.27-0.188c-76.932,0.115-154.112-1.278-231,1.49
					c-1.031,0.037-0.643,1.447,0.238,1.478c77.051,2.742,154.387,1.375,231.48,1.49c77.008,0.115,154.225,1.656,231.21-0.188
					C660.476,885.684,659.439,881.728,656.987,881.669z"/>
				<path style="fill:#59595B;" d="M672.245,845.832c-14.432-9.398-30.697-18.267-46.566-24.955
					c-0.61-0.257-1.128,0.522-0.552,0.927c14.071,9.893,30.164,19.069,45.76,26.311
					C672.381,848.808,673.677,846.765,672.245,845.832z"/>
				<path style="fill:#59595B;" d="M673.642,847.869c-0.862-0.675-1.728,0.416-0.956,1.16c8.969,8.638,8.36,20.461,2.184,30.362
					c-1.129,1.811,1.378,4.009,2.911,2.4C686.85,872.271,683.311,855.442,673.642,847.869z"/>
				<path style="fill:#59595B;" d="M669.292,881.869c-2.76,1.878-6.452,1.915-9.164-0.1c-1.091-0.81-2.272,0.586-1.208,1.466
					c3.414,2.823,8.169,2.733,11.459-0.229C670.992,882.453,669.925,881.438,669.292,881.869z"/>
				<path style="fill:#59595B;" d="M385.448,312.325c-44.646,86.608-74.156,187.277-86.273,291.14
					c-0.121,1.04,1.185,1.53,1.331,0.388c13.302-104.003,42.983-201.853,86.84-289.434
					C388.128,312.858,386.252,310.766,385.448,312.325z"/>
				<path style="fill:#59595B;" d="M604.427,616.909c-13.086,30.502-32.692,48.172-57.587,58.661
					c-27.303,11.503-56.814,14.718-85.308,14.731c-31.931,0.015-63.809-5.519-94.715-16.239
					c-24.518-8.505-55.168-22.52-62.114-59.439c-0.196-1.042-1.529-1.205-1.378,0.06c3.008,25.21,18.44,41.521,34.902,51.677
					c22.453,13.853,47.992,20.488,72.322,25.074c27.383,5.162,55.194,6.226,82.752,3.138c22.577-2.53,45.524-7.128,66.641-18.568
					c19.67-10.656,40.437-28.931,48.279-56.635C609.083,616.323,605.67,614.011,604.427,616.909z"/>
				<path style="fill:#59595B;" d="M606.334,585.887c-18.163-66.682-69.939-73.343-106.35-77.17
					c-27.134-2.852-54.416-1.248-81.384,4.752c-23.965,5.332-48.809,12.548-71.455,27.837c-19.316,13.041-37.512,34.1-43.447,70.934
					c-0.319,1.979,1.496,3.76,1.893,1.62c7.864-42.377,32.827-62.639,55.413-73.918c29.187-14.575,59.818-22.014,90.071-24.636
					c29.925-2.593,60.603-0.743,90.125,8.753c23.911,7.691,49.246,23.581,61.056,64.015
					C603.49,592.303,607.662,590.761,606.334,585.887z"/>
				<path style="fill:#59595B;" d="M611.633,315.859c-5.957-46.26-48.855-77.752-90.907-81.164
					c-50.11-4.066-98.031,24.887-128.438,65.327c-0.697,0.927,0.723,2.119,1.494,1.291c31.932-34.289,70.675-62.574,118.307-62.342
					c45.449,0.221,85.049,29.947,94.915,77.044C607.592,318.82,612.06,319.174,611.633,315.859z"/>
				<path style="fill:#59595B;" d="M615.127,352.173c-0.143-10.491-0.348-21.36-1.817-31.748c-0.115-0.814-1.493-1.137-1.629-0.2
					c-9.054-45.25-56.285-72.419-99.41-71.927c-54.889,0.626-100.639,35.877-133.496,77.51c-0.371,0.47,0.403,1.113,0.797,0.664
					c32.258-36.721,73.165-69.639,123.391-73.748c47.618-3.896,92.441,22.316,104.872,70.129c0.419,1.613,2.367,2.335,3.517,1.795
					c-0.511,9.006-0.172,18.245,0.18,27.187c0.014,0.365,0.185,0.664,0.41,0.921c-0.043,1.371-0.094,2.741-0.135,4.111
					c0.528-0.279,1.053-0.565,1.593-0.822c-0.01-0.846-0.025-1.693-0.036-2.539C614.258,353.624,615.141,353.24,615.127,352.173z"/>
				<path style="fill:#59595B;" d="M613.035,464.684c0.072-15.578,0.223-31.163,0.341-46.749c-0.919,0.46-1.838,0.919-2.757,1.379
					c-0.173,15.563-0.313,31.126-0.534,46.68c-0.287,20.105-0.605,40.21-0.911,60.315c-0.297,19.498-1.825,39.435-0.49,58.893
					c0.125,1.818,3.335,2.402,3.521,0.328c1.836-20.534,0.536-41.717,0.611-62.333C612.885,503.693,612.946,484.188,613.035,464.684
					z"/>
				<path style="fill:#59595B;" d="M341.755,527.956c-31.555,15.204-47.972,49.003-41.346,83.282
					c0.137,0.708,1.331,0.775,1.206-0.039c-5.166-33.749,11.424-65.651,41.68-81.19
					C344.665,529.305,343.038,527.337,341.755,527.956z"/>
				<path style="fill:#59595B;" d="M861.386,248.749c-36.875,14.901-138.316,59.54-174.997,74.913
					c-36.648,15.36-73.767,29.947-109.907,46.472c-1.063,0.486-0.287,2.099,0.737,1.714c37.203-13.986,73.723-30.029,110.457-45.195
					c36.762-15.177,138.457-59.209,175.021-74.857C864.627,250.971,863.172,248.027,861.386,248.749z"/>
				<path style="fill:#59595B;" d="M614.577,575.137c-13.237-44.302-54.578-73.412-98.467-82.284
					c-54.557-11.028-109.452,5.376-159.154,27.145c-0.652,0.286-0.164,1.28,0.446,1.037c47.907-19.12,99.638-35.259,151.71-26.305
					c45.713,7.861,86.654,36.511,101.406,81.641C611.376,578.997,615.43,577.993,614.577,575.137z"/>
				<path style="fill:#59595B;" d="M609.901,589.75c-0.018-0.712-1.232-1.112-1.26-0.274c-0.242,7.147-0.605,14.315-0.384,21.467
					c0.032,1.049,1.82,1.654,1.868,0.407C610.405,604.156,610.088,596.942,609.901,589.75z"/>
				<path style="fill:#59595B;" d="M400.72,538.909c-30.544,7.431-64.107,16.565-83.636,43.31
					c-14.756,20.207-16.651,49.08,1.953,67.531c0.68,0.675,1.832-0.285,1.161-1.036c-19.191-21.493-12.209-52.572,6.555-71.741
					c19.968-20.398,48.653-27.738,75.352-34.848C404.265,541.55,402.663,538.436,400.72,538.909z"/>
				<path style="fill:#59595B;" d="M604.699,609.611c-3.708-32.557-28.84-57.586-58.055-69.919
					c-39.111-16.511-82.576-9.426-123.143-3.621c-0.833,0.119-0.556,1.331,0.199,1.235c37.979-4.836,79.419-9.577,116.141,4.175
					c29.871,11.186,56,35.558,60.323,68.277C600.523,612.477,605.046,612.665,604.699,609.611z"/>
				<path style="fill:#59595B;" d="M396.965,292.091c-1.989,2.502-3.932,5.027-5.801,7.621c-1.647,2.285-3.679,4.584-4.704,7.224
					c-0.159,0.411,0.392,0.931,0.777,0.64c2.251-1.701,3.898-4.257,5.636-6.456c1.982-2.509,3.879-5.071,5.741-7.67
					C399.322,292.459,397.735,291.123,396.965,292.091z"/>
				<path style="fill:#59595B;" d="M368.708,393.992c-20.092,13.546-34.278,34.457-38.204,58.493
					c-0.077,0.471,0.788,0.839,0.917,0.318c5.799-23.421,18.535-43.408,38.261-57.512
					C370.475,394.725,369.473,393.476,368.708,393.992z"/>
				<path style="fill:#59595B;" d="M554.792,384.533c-51.487-26.877-114.841-25.918-166.466-0.07
					c-0.479,0.24,0.088,0.928,0.536,0.715c52.43-24.891,112.9-23.058,164.739,2.287
					C555.682,388.483,556.711,385.535,554.792,384.533z"/>
				<path style="fill:#59595B;" d="M574.965,367.348c-27.4,2.736-30.192,38.326-16.077,56.455c0.281,0.361,0.937,0.155,0.729-0.339
					c-3.866-9.154-7.354-17.925-6.308-28.117c1.287-12.537,9.03-23.289,22.171-24.801
					C577.653,370.298,576.924,367.153,574.965,367.348z"/>
				<path style="fill:#59595B;" d="M938.981,245.425c-10.332-17.681-37.063-21.116-50.15-5.884c-3.391-1.736-8.091-1.32-9.849,2.532
					c-0.192,0.421,0.431,0.981,0.812,0.669c2.375-1.944,5.094-2.944,7.68-1.491c-0.841,1.155-1.61,2.399-2.298,3.738
					c-0.002-0.589-0.017-1.166-0.009-1.765c0.011-0.797-1.208-1.257-1.539-0.422c-7.18,18.133,5.015,42.462,22.186,50.26
					c0.322,0.146,0.616,0.181,0.892,0.17c0.22,0.103,0.452,0.195,0.729,0.228c0.137,0.017,0.27,0.02,0.406,0.035
					c-0.164,0.355-0.306,0.722-0.463,1.081c-0.227,0.52-0.408,1.019-0.404,1.564c-0.769-1.145-2.856-1.398-2.853,0.234
					c0.016,7.733-7.921,8.914-13.88,9.826c-0.79,0.121-0.717,1.187,0.041,1.329c7.154,1.342,16.743-2.005,16.991-10.469
					c0.002-0.067-0.028-0.121-0.034-0.185c0.138,0.107,0.313,0.161,0.48,0.097c0.647-0.247,1.007-0.708,1.393-1.283
					c0.418-0.623,0.936-1.244,1.179-1.957c0.006-0.019,0.002-0.038,0.007-0.057C935.096,294.572,951.759,267.294,938.981,245.425z
					 M907.586,289.395c-0.248-0.01-0.446,0.044-0.65,0.089c-15.481-11.183-21.347-24.501-21.751-42.761
					c0.296,0.111,0.648,0.093,0.861-0.152c13.422-15.374,38.974-19.602,49.895,1.347
					C946.786,268.721,929.789,290.313,907.586,289.395z"/>
				<path style="fill:#59595B;" d="M903.771,295.582c-10.523,0.208-19.47-14.074-22.844-22.221
					c-3.786-9.141-4.551-18.788-3.249-28.531c0.068-0.506-0.737-0.726-0.855-0.186c-2.8,12.747-1.324,25.342,5.424,36.662
					c4.439,7.447,12.617,18.508,22.302,16.934C906.202,297.972,905.125,295.555,903.771,295.582z"/>
				<path style="fill:#59595B;" d="M876.621,240.031c-5.624-0.591-13.975,3.23-13.848,9.903c0.009,0.478,0.631,0.961,1.02,0.5
					c1.645-1.95,2.579-3.998,4.742-5.519c2.465-1.733,5.218-2.171,8.172-2.028C878.465,242.971,878.183,240.195,876.621,240.031z"/>
				<path style="fill:#59595B;" d="M598.112,424.211c-15.035,2.1-28.47-6.865-30.93-22.21c-2.17-13.54,5.543-24.376,15.11-32.844
					c1.375-1.217-0.351-3.501-1.879-2.505c-12.987,8.468-20.075,24.912-15.493,40.003c4.347,14.317,18.907,23.67,33.533,18.723
					C599.117,425.154,598.751,424.122,598.112,424.211z"/>
				<path style="fill:#59595B;" d="M893.445,303.753c-50.947,18.627-100.99,40.277-151.328,60.496
					c-44.028,17.684-89.188,34.013-132.528,53.545c-0.814-1.229-2.669-1.741-3.478-0.066c-0.371,0.768-0.78,1.49-1.19,2.211
					c-3.396,1.554-6.807,3.08-10.177,4.678c-0.827,0.392,0.067,1.669,0.825,1.42c2.289-0.753,4.572-1.529,6.856-2.303
					c-8.65,11.365-22.931,14.593-36.442,5.538c-0.744-0.499-1.397,0.312-0.784,0.95c13.175,13.724,37.797,9.503,44.18-8.879
					c46.005-16.019,91.08-35.833,136.264-53.81c49.805-19.816,100.382-38.379,149.543-59.738
					C897.727,306.69,895.858,302.87,893.445,303.753z"/>
				<path style="fill:#59595B;" d="M388.849,386.997c-0.245-1.415-2.459-1.525-2.368,0.077c0.237,4.17-1.592,8.082-5.587,9.774
					c-4.065,1.722-7.868-0.002-11.148-2.449c-0.362-0.27-0.982-0.008-0.748,0.493c2.129,4.551,8.151,6.222,12.698,4.625
					C386.681,397.766,389.74,392.131,388.849,386.997z"/>
				<path style="fill:#59595B;" d="M555.301,571.849c-61.357-11.769-129.916-10.771-190.125,6.701c-0.75,0.217-0.181,1.23,0.473,1.1
					c31.371-6.229,62.453-11.521,94.505-12.435c31.944-0.911,63.385,2.149,94.864,7.367
					C556.945,574.903,557.045,572.184,555.301,571.849z"/>
				<path style="fill:#59595B;" d="M375.078,581.969c-0.065-0.783-0.75-1.694-1.574-1.003c-0.713,0.598-2.317,0.574-3.209,0.706
					l-2.742,0.405c-0.651,0.096-0.443,1.018,0.156,0.97l3.023-0.24c0.842-0.067,2.253-0.438,3.053-0.094
					c0.103,0.044,0.192,0.068,0.281,0.092c-7.328,15.831-14.306,31.83-21.355,47.786c-0.442,1,1.28,1.908,1.737,0.842
					c6.996-16.303,14.077-32.579,20.775-49.008C375.298,582.241,375.208,582.084,375.078,581.969z"/>
				<path style="fill:#59595B;" d="M404.305,629.216c-6.298-14.719-12.156-29.627-18.432-44.356
					c-0.676-1.587-3.293-0.99-2.568,0.781c2.802,6.84,5.699,13.641,8.565,20.455c1.697,4.034,9.918,18.2,8.039,21.59
					c-1.85,3.34-16.808,3.107-20.56,3.333c-6.967,0.42-13.934,0.446-20.909,0.468c6.12-15.138,12.218-30.291,17.938-45.585
					c0.218-0.584-0.724-1.093-0.995-0.483c-6.69,15.048-13,30.264-19.29,45.482c-0.086,0.207-0.08,0.405-0.04,0.594l-0.294,0.001
					c-0.743,0.003-0.615,1.111,0.037,1.199c15.902,2.147,32.127,1.235,47.839-1.896C404.331,630.66,404.548,629.785,404.305,629.216
					z"/>
				<path style="fill:#59595B;" d="M409.145,628.932c-6.845-16.055-14.344-31.839-21.769-47.631c-0.24-0.511-1.09-0.332-0.849,0.258
					c6.581,16.096,13.11,32.238,20.278,48.084C407.45,631.07,409.831,630.54,409.145,628.932z"/>
				<path style="fill:#59595B;" d="M407.219,632.669c-17.732,8.481-36.658,8.587-55.075,2.071c-0.703-0.249-1.025,0.618-0.389,0.958
					c18.167,9.687,39.331,8.951,57.582-0.203C411.226,634.547,408.991,631.822,407.219,632.669z"/>
				<path style="fill:#59595B;" d="M452.769,570.347c-18.05,0.334-49.883,4.495-67.11,9.934c-0.885,0.279-0.205,1.426,0.555,1.291
					c18.128-3.222,48.735-6.739,67.113-7.76C455.711,573.679,454.876,570.308,452.769,570.347z"/>
				<path style="fill:#59595B;" d="M529.243,572.822c-16.414-0.601-45.942-2.297-62.364-1.964c-0.805,0.016-0.679,1.225,0.04,1.308
					c16.01,1.834,45.229,3.069,61.324,3.99c-5.162,14.819-10.576,29.662-15.241,44.636c-0.249,0.8,1.041,1.516,1.356,0.657
					c5.457-14.894,10.219-30.149,15.182-45.22c0.085,0.005,0.17,0.009,0.254,0.014C532.104,576.377,531.335,572.898,529.243,572.822
					z"/>
				<path style="fill:#59595B;" d="M557.782,624.228c-3.908-16.395-8.582-33.15-14.208-49.026c-0.567-1.599-3.631-1.41-3.121,0.509
					c4.313,16.211,9.875,32.526,15.869,48.204c-12.577,1.283-24.025,0.519-36.553-1.181c-0.016-0.002-0.023,0.01-0.039,0.008
					c4.551-14.742,8.452-29.726,13.405-44.334c0.578-1.706-2.199-2.84-2.644-0.918c-3.549,15.353-8.235,30.465-12.165,45.727
					c-0.16,0.624,0.789,1.184,1.063,0.602c0.037,0.025,0.046,0.066,0.091,0.085c11.625,5.211,25.792,6.021,38.164,3.288
					C559.157,626.858,558.81,625.005,557.782,624.228z"/>
				<path style="fill:#59595B;" d="M563.654,627.2c-4.696-17.7-9.847-35.499-15.543-52.901c-0.213-0.65-1.425-0.568-1.248,0.203
					c4.053,17.676,8.781,35.381,13.843,52.793C561.187,628.951,564.169,629.142,563.654,627.2z"/>
				<path style="fill:#59595B;" d="M566.325,628.288c-9.618,3.756-19.176,5.985-29.577,5.191
					c-9.382-0.716-17.495-4.164-26.294-7.148c-0.629-0.213-0.783,0.639-0.403,0.978c15.095,13.495,41.043,13.045,58.377,4.598
					C570.49,630.903,568.263,627.531,566.325,628.288z"/>
				<path style="fill:#59595B;" d="M453.28,572.939c-3.44,16.442-6.064,33.081-9.02,49.617c-2.915,16.305-7.485,33.212-8.439,49.744
					c-0.053,0.928,1.568,1.786,1.901,0.66c4.533-15.364,5.843-32.204,8.477-47.997c2.872-17.219,6.109-34.424,8.476-51.719
					C454.789,572.42,453.466,572.055,453.28,572.939z"/>
				<path style="fill:#59595B;" d="M490.752,673.177c-5.776-33.176-11.757-67.247-20.412-99.779
					c-0.518-1.949-3.879-2.288-3.485,0.113c5.45,33.161,14.024,66.622,22.371,99.196c-16.485,2.606-32.298,2.589-48.767-0.458
					c-1.124-0.208-1.123,1.301-0.162,1.571c16.355,4.613,33.402,5.422,50.109,2.163
					C491.797,675.713,491.604,674.037,490.752,673.177z"/>
				<path style="fill:#59595B;" d="M369.579,417.834c-6.736,33.257-13.045,66.603-19.901,99.835
					c-0.249,1.206,1.851,1.802,2.093,0.456c6.02-33.403,12.589-66.708,18.73-100.09
					C370.601,417.497,369.698,417.247,369.579,417.834z"/>
				<path style="fill:#59595B;" d="M401.806,303.241c-6.304,22.427-13.684,44.583-20.485,66.866
					c-0.203,0.667,0.886,1.258,1.123,0.544c7.306-22.044,14.061-44.324,21.862-66.198
					C404.846,302.939,402.245,301.681,401.806,303.241z"/>
				<path style="fill:#59595B;" d="M579.107,435.442c-4.574,26.38-7.404,53.361-10.399,79.966c-0.196,1.741,2.724,2.571,2.972,0.647
					c3.426-26.602,7.087-53.526,8.935-80.284C580.675,434.889,579.276,434.465,579.107,435.442z"/>
				<path style="fill:#59595B;" d="M584.697,278.344c-0.048-0.492-0.861-0.636-0.942-0.088c-2.147,14.662-1.511,30.036-1.918,44.836
					c-0.412,14.991-1.081,30.002-1.177,44.997c-0.011,1.79,3.028,2.715,3.107,0.676c0.601-15.632,0.6-31.308,0.87-46.949
					C584.885,307.453,586.09,292.654,584.697,278.344z"/>
				<path style="fill:#59595B;" d="M246.405,790.406c-10.252,5.043-15.383,21.269-7.745,30.228
					c-17.429,8.695-41.589,14.58-52.021,32.107c-6.663,11.195-5.323,28.472,8.547,33.203c0.892,0.304,1.223-0.965,0.597-1.449
					c-17.062-13.194-6.924-33.096,8.175-42.443c11.924-7.382,26.826-9.933,37.986-18.533c0.045,0.029,0.079,0.065,0.124,0.094
					c0.426,0.268,0.836-0.21,0.687-0.62c-0.009-0.025-0.019-0.049-0.028-0.074c0.062-0.05,0.128-0.095,0.191-0.146
					c1.563-1.281,0.159-3.379-1.493-3.32c-1.424-3.789-2.621-7.482-2.009-11.79c0.879-6.183,4.656-10.351,9.53-13.867
					C251.077,792.261,248.489,789.381,246.405,790.406z"/>
				<path style="fill:#59595B;" d="M627.979,795.902c-0.976-0.319-1.301,1.029-0.643,1.562c7.946,6.443,11.033,15.696,4.986,24.715
					c-1.468,2.189,1.974,5.126,3.589,2.958C643.173,815.389,640.263,799.913,627.979,795.902z"/>
				<path style="fill:#59595B;" d="M683.573,860.585c-4.453-19.194-31.915-31.815-48.934-36.086
					c-1.119-0.281-1.329,1.268-0.422,1.704c12.643,6.086,25.82,12.318,36.287,21.862c6.891,6.283,11.63,15.448,7.253,24.645
					c-4.228,8.884-13.72,11.114-22.587,8.821c-2.494-0.645-3.209,3.084-0.971,3.923C670.21,891.456,687.63,878.072,683.573,860.585z
					"/>
				<path style="fill:#59595B;" d="M620.121,789.383c-13.93-7.257-30.456-14.403-46.704-17.601
					c-22.673-8.937-46.223-15.672-70.175-20.137c-54.919-10.237-112.047-8.688-166.315,4.572
					c-30.895,7.549-61.15,18.815-88.736,34.74c-1.436,0.829,0.291,2.812,1.624,2.166c62.352-30.202,129.547-46.148,199.04-42.918
					c34.193,1.589,68.223,7.653,100.813,18.135c3.791,1.219,7.559,2.513,11.309,3.857c0.63-0.214,1.36-0.198,2.148,0.2
					c4.402,2.225,9.597,3.212,14.716,4.247c25.188,7.866,63.675,21.845,55.221,40.097c-119.524-62.473-264.55-64.423-385.802-5.518
					c-0.708,0.344,0.127,1.364,0.791,1.055c122.185-56.915,263.322-53.803,382.973,7.757c-0.121,0.16-0.215,0.318-0.343,0.478
					c-1.729,2.156,1.766,4.939,3.662,3.019C647.309,810.399,631.91,795.525,620.121,789.383z"/>
				<path style="fill:#59595B;" d="M681.046,869.67c-3.454-9.642-13.713-11.885-22.73-13.896
					c-16.749-3.735-33.618-6.962-50.543-9.79c-33.414-5.583-67.12-9.492-100.92-11.778c-69.116-4.676-138.695-2.323-207.322,7.14
					c-37.765,5.207-75.13,12.698-112.055,22.157c-1.15,0.295-0.301,1.968,0.738,1.714c125.383-30.705,256.665-38.205,384.599-20.495
					c17.616,2.439,35.167,5.339,52.63,8.705c8.431,1.625,16.842,3.359,25.229,5.196c8.698,1.904,22.272,2.826,26.233,12.306
					C677.981,873.507,682.084,872.569,681.046,869.67z"/>
				<path style="fill:#59595B;" d="M255.031,785.552c-3.704,2.29-7.479,4.493-10.826,7.291c-0.569,0.476,0.117,1.245,0.72,0.96
					c3.962-1.871,7.568-4.363,11.222-6.764C257.081,786.425,255.925,784.999,255.031,785.552z"/>
				<path style="fill:#59595B;" d="M887.701,297.698c-16.822-5.594-25.413-22.513-21.963-39.589
					c0.089-0.439-0.694-0.768-0.852-0.296c-2.394,7.148-2.476,14.18-0.659,20.521c-0.028,0.01-0.055,0.003-0.083,0.015
					c-45.744,19.933-92.421,37.918-138.622,56.764c-46.233,18.859-92.339,38.022-138.549,56.935
					c-0.785,0.321-0.189,1.516,0.528,1.227c46.313-18.68,92.727-37.109,139.018-55.844c46.206-18.7,92.153-38.344,138.786-55.954
					c3.671,9.141,11.465,16.504,21.99,20.137C889.92,302.522,890.08,298.489,887.701,297.698z"/>
				<path style="fill:#59595B;" d="M921.497,240.067c-0.344-0.093-0.579,0.059-0.695,0.289c-0.664-0.212-1.505,0.249-1.156,1.129
					c1.823,4.595-4.277,7.021-7.815,6.783c-4.191-0.282-8.124-4.849-4.573-8.599c0.38-0.401-0.341-1.142-0.746-0.78
					c-0.433,0.387-0.769,0.797-1.057,1.215c-0.009-0.507-0.549-1.082-1.164-0.94c-6.191,1.431-12.35,4.783-16.43,9.732
					c-0.437,0.53,0.401,1.427,0.94,0.984c4.982-4.098,9.95-7.22,16.164-9.15c0.063-0.02,0.1-0.054,0.15-0.082
					c-2.032,3.795,1.192,8.359,5.648,9.184c4.898,0.907,12.383-2.439,10.849-8.23c8.443,3.669,14.391,10.907,14.152,20.538
					c-0.012,0.497,0.831,0.744,0.855,0.186C937.047,252.283,931.616,242.795,921.497,240.067z"/>
				<path style="fill:#59595B;" d="M578.252,369.512c-28.027,9.677-27.138,46.813-2.796,59.754c0.534,0.284,0.794-0.486,0.31-0.762
					c-24.48-13.921-19.205-45.207,3.962-56.452C581.195,371.339,579.61,369.043,578.252,369.512z"/>
				<path style="fill:#59595B;" d="M604.169,418.842c-5.812,7.374-13.376,10.905-22.735,11.205c-0.663,0.021-0.49,0.893,0.031,1.024
					c9.357,2.366,19.951-2.093,25.084-10.267C607.466,419.344,605.296,417.412,604.169,418.842z"/>
				<path style="fill:#59595B;" d="M892.658,301.864c-96.345,40.077-193.943,78.176-288.697,121.911
					c-2.409,1.112-0.663,4.755,1.675,3.894c1.811-0.667,3.616-1.351,5.426-2.022c-1.817,25.812-1.545,51.973-2.101,77.831
					c-0.535,24.884-2.217,50.305,0.092,75.149c-2.796-1.342-6.792-0.326-5.884,3.513c1.508,6.383,2.474,12.015,0.808,18.515
					c-1.433,5.594-4.756,9.829-7.148,14.954c-0.282,0.604,0.04,1.253,0.554,1.637c-28.594,55.152-88.059,72.355-146.799,73.298
					c-31.422,0.505-65.004-0.475-94.237-13.253c-25.539-11.164-48.513-34.01-53.157-62.461c-0.012-0.071-0.049-0.122-0.068-0.188
					c-4.751-25.901,2.04-52.061,7.791-77.332c5.963-26.201,12.993-52.17,20.965-77.831c7.533-24.249,15.993-48.22,25.215-71.877
					c4.831-12.393,9.912-24.689,15.171-36.906c4.698-10.914,10.534-21.72,14.439-32.99c0.251-0.202,0.482-0.455,0.674-0.782
					c2.936-5.007,4.611-10.859,6.422-16.335c0.509-1.54-1.938-3.556-2.962-1.902c-3.104,5.017-6.594,10.163-8.587,15.752
					c-0.256,0.717-0.201,1.388,0.041,1.965c-5.914,9.363-10.255,19.975-14.882,29.926c-5.858,12.598-11.398,25.338-16.681,38.188
					c-10.336,25.137-19.515,50.736-27.682,76.659c-7.905,25.091-14.755,50.499-20.645,76.137
					c-5.923,25.779-13.702,53.74-6.736,80.05c0.634,2.396,3.188,3.668,5.247,3.521c3.457,25.5,20.119,45.842,42.625,58.765
					c30.304,17.401,67.163,19.424,101.293,19.52c59.534,0.167,137.452-16.098,161.503-79.31c0.871-2.291-0.372-4.387-2.178-5.459
					c8.529-7.081,11.098-22.03,7.696-32.005c0.474-0.176,0.865-0.547,0.973-1.202c4.208-25.481,3.76-52.023,4.67-77.781
					c0.919-26.011,2.698-52.289,2.233-78.311c-0.016-0.883-0.304-1.696-0.761-2.401c93.326-34.956,184.962-75.013,277.059-113.006
					C901.033,307.63,897.204,299.973,892.658,301.864z"/>
				<path style="fill:#59595B;" d="M938.367,247.234c-9.499-18.281-36.936-25.854-52.073-10.738
					c-11.766-3.989-27.257,0.949-33.485,12.017c-0.164,0.029-0.327,0.055-0.49,0.112c-24.429,8.677-48.152,20.148-72.025,30.262
					l-70.135,29.714c-23.378,9.905-46.7,19.941-69.968,30.102c-7.851,3.428-15.777,6.788-23.69,10.195
					c0.191-10.987,1.196-22.136,0.049-33.074c-0.004-0.038-0.028-0.072-0.036-0.109c-0.3-20.731-15.297-43.336-28.783-56.485
					c-19.32-18.835-45.52-28.209-72.27-28.688c-54.999-0.986-112.266,36.176-136.019,85.693c-0.892,1.86,1.967,3.572,3.317,2.13
					c17.024-18.176,32.036-37.26,52.461-51.969c21.036-15.149,45.704-25.152,71.729-26.668c25.573-1.489,51.277,5.607,70.705,22.691
					c8.587,7.551,15.813,16.913,20.792,27.218c5.496,11.374,5.827,22.375,8.338,34.366c0.465,2.219,2.302,3.692,4.197,4.028
					c-0.901,6.972-1.404,14.025-2.304,20.948c-0.151,1.163,0.246,2.152,0.927,2.912c-12.651,5.521-25.211,11.258-37.318,17.732
					c-1.585,0.848,0.132,3.231,1.603,2.759c24.731-7.931,48.748-18.697,72.772-28.526c23.5-9.615,46.934-19.394,70.327-29.267
					c23.392-9.872,46.785-19.744,70.177-29.616c22.989-9.702,46.782-18.412,69.149-29.471c1.937-0.958,1.894-2.941,0.919-4.563
					c3.804-2.731,7.656-5.253,12.249-6.6c5.558-1.63,10.606-1.179,16.265-0.756c2.001,0.15,3-1.298,3.104-2.935
					c15.037-7.833,33.741-7.477,42.108,10.211c8.06,17.038-3.662,36.194-21.916,38.632c-2.725,0.364-3.818,2.345-3.716,4.366
					c-0.614,1.126-1.052,2.365-1.774,3.45c-1.108,1.668-2.423,3.168-4.023,4.376c-3.211,2.423-7.127,3.241-11.091,3.177
					c-4.311-0.07-2.883,5.529,0.197,6.452c5.61,1.681,11.285-0.279,15.538-4.15c2.216-2.018,4.516-5.277,5.263-8.602
					c0.34,0.031,0.693,0.031,1.065-0.022C934.822,295.066,950.127,269.867,938.367,247.234z"/>
				<path style="fill:#59595B;" d="M681.091,844.735c-9.533-14.819-32.199-26.331-49.9-23.333c-1.481,0.251-0.817,2.198,0.077,2.687
					c12.865,7.022,26.574,7.681,37.215,19.135c10.185,10.963,11.643,26.745,0.218,36.453c-2.859-1.295-6.011,0.593-6.126,3.319
					c-38.266-1.359-76.768-0.449-115.044-0.675c-39.794-0.235-79.588-0.426-119.383-0.624c-39.781-0.198-79.561-0.319-119.343-0.377
					c-19.552-0.029-39.103-0.032-58.655,0.052c-19.091,0.082-38.457-0.586-57.526,0.862c-0.89-1.837-2.849-3.19-4.697-2.362
					c-2.203-13.946,5.33-27.765,15.909-37.012c8.724-7.626,19.113-12.047,29.386-16.828c1.729,0.96,3.809,1.482,6.282,1.366
					c3.231-0.151,3.77-3.431,2.335-5.573c0.91-0.476,1.816-0.962,2.714-1.463c1.266-0.706,0.13-2.82-1.131-2.617
					c-1.834,0.294-3.709,0.667-5.604,1.096c-6.523-5.362-1.376-14.741,3.819-20.386c5.646-6.134,12.803-9.94,20.419-13.108
					c1.598-0.665,0.749-2.913-0.836-2.852c-13.205,0.501-26.319,8.889-32.425,20.715c-2.702,5.234-2.893,12.85-0.036,18.14
					c-29.562,9.645-60.183,34.083-46.995,67.671c1.086,2.766,5.46,4.352,7.525,1.697c0.701-0.832,1.35-1.7,1.97-2.589
					c37.973,3.683,77.025,2.066,115.131,2.471c40.471,0.43,80.941,0.806,121.414,1.094c40.457,0.288,80.914,0.583,121.372,0.833
					c40.372,0.25,80.98,1.817,121.33,0.574c3.273-0.101,4.388-2.271,4.048-4.552C689.049,879.289,689.912,858.447,681.091,844.735z"
					/>
				<path style="fill:#59595B;" d="M639.874,805.346c-0.41-4.017-1.805-7.705-3.982-10.909c0.275-2.121-0.597-4.569-3.037-5.99
					c-93.113-54.234-214.728-62.52-316.142-28.812c-28.568,9.496-57.505,21.925-81.837,39.875c-1.672,1.233,0.358,3.468,2.005,2.674
					c31.085-14.981,61.805-29.195,95.294-38.068c33.026-8.75,66.857-13.657,101.035-14.117
					c68.297-0.919,132.714,15.6,193.285,46.417c2.883,2.943,4.993,6.635,5.888,10.674c0.934,4.213-0.298,8.255,0.31,12.399
					c0.157,1.071,1.432,1.725,2.37,1.177C639.871,817.859,640.38,810.306,639.874,805.346z"/>
			</g>
		</g>
	</g>
</g>
</svg>
